<?xml version="1.0" encoding="UTF-8" standalone="no"?><svg xmlns="http://www.w3.org/2000/svg" xmlns:xlink="http://www.w3.org/1999/xlink" contentScriptType="text/ecmascript" fill="#000000" width="408" zoomAndPan="magnify" contentStyleType="text/css" viewBox="0.0 0.0 408.4 248.7" height="249" preserveAspectRatio="xMidYMid meet" version="1"><g id="change1_1"><path fill="#0000bd" d="M407.218,141.519l-39.49-69.227c-1.654-2.897-4.734-4.687-8.071-4.687h-58.919V29.983c0-16.559-13.424-29.983-29.983-29.983H86.797c-14.899,0-27.669,11.129-29.704,25.89l-3.689,26.77H0v18.583h50.844l-4.009,29.093h-30.209v18.583h37.857c4.083.206,7.935-2.339,9.271-6.354.211-.637.352-1.289.422-1.942l3.448-25.019c1.134-8.231,8.168-14.362,16.477-14.362h22.516v-18.583h-34.452l3.34-24.234c.777-5.641,5.598-9.843,11.293-9.843h183.958c6.296,0,11.399,5.104,11.399,11.399v101.44c0,9.186-7.447,16.633-16.633,16.633h-81.867v18.583h81.867c9.186,0,16.633,7.447,16.633,16.633v17.445h-115.242c-4.171-16.85-19.414-29.381-37.536-29.381s-33.362,12.531-37.533,29.381h-26.691c-3.101,0-6.152-1.113-8.343-3.307-2.596-2.6-3.756-6.066-3.263-9.648l2.911-21.122h33.75v-18.583H0v18.583h37.696l-2.562,18.586c-1.63,11.839,3.909,23.842,14.873,30.175,4.599,2.656,9.878,3.9,15.189,3.9h26.648c4.173,16.846,19.414,29.375,37.532,29.375s33.361-12.528,37.534-29.375h140.853c4.173,16.846,19.415,29.375,37.534,29.375s33.359-12.528,37.532-29.375h16.317c5.132,0,9.292-4.16,9.292-9.292v-63.883c0-1.615-.42-3.201-1.22-4.605ZM131.444,229.986c-12.695,1.276-23.325-9.354-22.049-22.049.944-9.39,8.541-16.983,17.933-17.917,12.682-1.262,23.296,9.351,22.034,22.034-.935,9.391-8.527,16.989-17.917,17.933ZM347.352,229.987c-12.688,1.267-23.308-9.354-22.039-22.04.939-9.391,8.535-16.987,17.926-17.926,12.686-1.269,23.308,9.351,22.041,22.039-.938,9.393-8.535,16.99-17.927,17.927ZM382.831,200.716c-4.171-16.85-19.414-29.381-37.533-29.381s-33.364,12.531-37.536,29.381h-7.024v-114.527h53.523l11.573,20.289h-16.529c-4.901,0-8.874,3.973-8.874,8.874v27.362c0,4.901,3.973,8.874,8.874,8.874h40.55v49.128h-7.024Z"/></g></svg>