<?xml version="1.0" encoding="UTF-8" standalone="no"?><svg xmlns="http://www.w3.org/2000/svg" xmlns:xlink="http://www.w3.org/1999/xlink" contentScriptType="text/ecmascript" fill="#004aad" width="410" zoomAndPan="magnify" contentStyleType="text/css" viewBox="0.0 -0.0 410.0 501.3" height="501.3" preserveAspectRatio="xMidYMid meet" version="1"><g id="change1_1"><path d="M272.3,225.9h-27.3c62.4,0,112.9-50.6,112.9-112.9c0-62.4-50.5-113-112.9-113H0v13.6h50.8v471.1H0v16.6h272.3 c76,0,137.7-61.6,137.7-137.7C409.9,287.5,348.3,225.9,272.3,225.9z M129.6,13.6h58.9c54.9,0,99.4,44.5,99.4,99.4 c0,54.9-44.5,99.4-99.4,99.4h-58.9V13.6z M211.2,484.7h-81.6V242.4h81.6c66.9,0,121.1,54.3,121.1,121.2S278.1,484.7,211.2,484.7z"/></g></svg>