<?xml version="1.0" encoding="UTF-8" standalone="no"?><svg xmlns="http://www.w3.org/2000/svg" xmlns:xlink="http://www.w3.org/1999/xlink" contentScriptType="text/ecmascript" fill="#000000" width="950" zoomAndPan="magnify" contentStyleType="text/css" viewBox="25.0 119.9 950.4 759.6" height="760" preserveAspectRatio="xMidYMid meet" version="1"><g id="change1_1"><path d="M302.2,296.3c0.1-0.4,0.2-0.8,0.2-1.2c0.1-1,0.2-1.9,0.2-3c0-1.1-0.1-2.3-0.6-3.7c-0.3-0.7-0.7-1.5-1.3-2.1 c-0.1-0.2-0.3-0.3-0.5-0.5c-0.2-0.2-0.4-0.3-0.6-0.5c-0.4-0.3-0.9-0.5-1.4-0.6c-0.1,0-0.2-0.1-0.3-0.1c0-1.4,0-2.8-0.1-4.2 c-0.1-1.5-0.3-2.9-0.6-4.5c-0.3-1.6-0.7-3.2-1.4-4.9c-0.7-1.7-1.7-3.4-3.1-4.9c-1.5-1.5-3.6-2.7-5.6-3.2c-2-0.6-3.9-0.8-5.8-0.9 c-1.9-0.2-3.8-0.2-5.8-0.2c-3.1,0.1-6.1,0.4-9,1c-2.9,0.6-5.9,1.4-8.7,3c-2.8,1.6-5.1,3.9-6.7,6.2c-0.4,0.6-0.8,1.1-1.2,1.7 c-0.3,0.5-0.9,1.4-0.7,1.2c0,0.1-0.1,0.3-0.1,0.3c0,0-0.1-0.1-0.2-0.1l-0.2-0.1l-0.1-0.1l-0.3-0.2c-0.4-0.3-0.9-0.5-1.3-0.7 c-1.8-0.8-3.6-1.2-5.3-1.2c-3.6-0.2-6.6,0.9-9.2,2c-2.6,1.2-4.7,2.5-6.7,3.8c-2,1.3-3.9,2.9-5.1,4.9c-1.2,1.9-1.6,4.2-1.1,6 c0.6,2.7,3,5.5,4.7,7.8c1.9,2.5,4.2,4.9,7.3,6c0.6-1.9,1.3-3.7,1.9-5.6c0.2-0.6,0.4-1.3,0.9-1.8c1.2-1.2,3.2-0.9,4.7-0.2 c1.5,0.7,2.8,1.7,4,2.8c0.7,0.7,1.3,1.5,2.2,1.8c1.6,0.6,3.5-0.4,4.8-1.5c2-1.7,3.6-3.7,5.5-5.4s4.2-3.3,6.7-3.6 c2.6-0.4,5.4,0.7,6.6,3c0.5,0.9,0.6,2,0.7,3c0.1,1.1,0,2.3-0.7,3.2c-0.4,0.5-0.9,0.8-1.2,1.3c-0.8,1-1,2.4-0.4,3.5 c0.8,1.6,2.7,2.3,3.7,3.7c1.2,1.7,0.8,4.2-0.6,5.8c-0.9,1-2,1.7-2.9,2.6c-0.9,0.9-1.6,2.3-1.2,3.5c1.9-0.9,3.1-2.9,4.9-4 c1-0.6,2.2-1,3.4-1.2c2.2-0.4,4.6-0.5,6.7-1.5c2-1,3.7-1.7,5.9-2.2c1.3-0.3,2.9-0.6,5-1.3c2.1-0.8,4.5-2.3,6.4-4.7 C300.1,302.3,301.5,299.5,302.2,296.3z M297,289.7C297,289.7,297,289.7,297,289.7L297,289.7C297,289.6,297,289.6,297,289.7z M209,165.5c-0.1-1.5,0-3.1,0.3-4.8c0.3-1.7,0.9-3.5,1.8-5.4c2-3.7,5.5-7.1,10.2-9.1c2.4-1,5-1.8,8-2c2.9-0.2,6.2,0.2,9.3,1.7 c1.6,0.7,2.9,1.7,4.1,2.4c1.2,0.8,2.2,1.3,2.9,1.4c0.7,0.1,1.3,0,2.1-0.6c0.8-0.6,1.8-1.6,2.9-2.9c4.6-5.3,10-11.1,17.1-16 c3.6-2.5,7.6-4.8,12.1-6.5c4.4-1.8,9.5-2.9,14.7-3.2c10.4-0.6,21.9,1.9,32.2,8.6c1.3,0.8,2.5,1.8,3.8,2.7c1.2,1,2.4,2.1,3.6,3.2 c2.2,2.4,4.4,4.9,6.1,7.8c0.4,0.7,0.9,1.5,1.3,2.2c0.4,0.7,0.7,1.3,1,1.8c0.3,0.5,0.6,0.8,0.8,1c0.2,0.2,0.3,0.3,0.5,0.3 c0.3,0.1,1.2,0.2,2.5-0.1c0.6-0.1,1.3-0.3,2.1-0.6c0.8-0.2,1.6-0.5,2.4-0.7c12.7-3.7,26.6-6.7,41.6-8.5c7.5-0.8,15.6-1.4,24-0.1 c4.2,0.7,8.5,1.7,12.6,3.6c2.1,0.9,4.1,2.2,6,3.5c1.9,1.4,3.7,3,5.3,4.8c1.8,2.1,3.4,4.4,4.6,7c1.2,2.6,2,5.4,2.2,8.4 c0.2,3-0.5,6.1-1.6,8.8c-1.1,2.6-2.5,4.7-3.6,6.6c-1.1,1.9-1.9,3.6-2.1,5.1c-0.3,1.6-0.1,3.2,0.5,4.8c0.6,1.6,1.6,3.3,2.8,4.9 c1.2,1.6,2.6,3.2,4.2,4.7c3.1,3.1,6.5,5.9,9.8,9.2c3.3,3.3,6.3,6.9,9,10.6c2.7,3.8,5,7.7,6.9,11.8c1,2.1,1.8,4.3,2.5,6.6 c0.6,2.3,1,4.9,0.8,7.5c-0.2,2.6-1,5.3-2.3,7.5c-1.3,2.2-2.9,4-4.5,5.6c-1.6,1.6-3.3,2.9-5,4.1c-1.6,1.2-3.2,2.4-4.9,3.6 c-6.4,4.6-12.4,9.1-16.8,14.4c-2.2,2.6-4,5.4-5.2,8.3c-1.2,2.9-1.6,6-1.9,9.4c-0.3,3.4-0.5,6.9-1.5,10.5c-0.9,3.6-2.9,7.3-5.9,9.7 c-3,2.5-6.4,3.7-9.8,4.2c-3.3,0.5-6.6,0.4-9.7-0.2c-6.2-1.2-11.2-4.1-15.4-7c-2.1-1.4-4.1-3-5.9-4.3c-1.8-1.3-3.5-2.1-5.2-2.2 c-1.7-0.2-3.5,0.3-5.3,0.8c-1.8,0.6-3.5,1.2-5,1.9c-6.3,2.8-10.5,6.2-13.2,8.7c-2.7,2.5-4,4-4.2,3.8c-0.2-0.1,0.6-2,3-4.9 c3.4-4.1,8.1-6.2,11.7-9.8c3.9-3.9,6.3-7,12.2-8.1c5.3-1,10.7-0.3,16,0.4c2.7-6.8-0.1-15.5,4.5-21.2c2.9-3.6,7.8-4.8,11.3-7.9 c5.9-5.2,6.1-14.6,3.3-21.9c-2.8-7.4-8-13.5-11.8-20.4c-2-3.7-3.7-8.1-2.4-12.1c1.1-3.4,4-5.7,6.4-8.3c5.3-5.8,8.2-14.7,4.7-21.8 c-4.1-8.5-15.4-11-24.6-8.9s-17.2,7.4-26,10.9c-8.7,3.5-19.4,4.8-27-0.7c-6.3-4.6-8.7-12.6-13.1-19.1c-5.3-7.8-13.6-13.3-22.8-15.2 c-9.2-1.9-19.1,0-26.9,5.1c-5.2,3.3-9.7,8.1-15.7,9.3c-6.8,1.4-13.5-2-20.1-3.9s-15.4-1.4-18.5,4.8c-0.8,1.5-1,3.1-1.1,4.8 c0,0.9,0.7,3.6,0.3,4.3c-1.4,2.2-4-1.8-4.9-3c-0.8-1.1-1.6-2.6-2.5-4.5C209.9,170.9,209.1,168.5,209,165.5z M349.8,284.6 c1.1-9.2-3.9-19.4-12.7-22.3c-8.3-2.7-17.3,1.3-26,0.6c-1.8-0.1-3.8-0.6-4.5-2.2c-0.4-0.8-0.4-1.7-0.4-2.5c0-3.5,0.1-7.1,0.1-10.6 c0-0.6,0-1.2-0.3-1.7c-0.5-1-1.7-1.3-2.8-1.4c-5.4-0.4-10.4,2.9-15.8,3.2c-0.7,0-1.4,0-2-0.3c-0.7-0.3-1.2-1-1.6-1.8 c-1.2-2.7-0.1-5.9,1.5-8.4c1.5-2.5,3.5-4.9,4.3-7.7c0.4-1.7,0.4-3.5,0.1-5.2c-0.4-2.1-1.4-4.3-3.1-5.6c-3-2.4-7.3-1.9-11-0.8 c-5.8,1.8-11.2,5.1-15.6,9.4c-2.7,2.7-5.7,6.1-9.6,5.8c-4.2-0.4-7.2-5.2-11.4-5.1c-1.6,3.9-2,8.2-1.4,12.4 c-4.3-2.7-7.4-6.9-9.8-11.3c-2.1-3.9-5.2-8.9-6-13.3c-0.2-1.3-0.3-2.9,0.1-4.4c0.4-1.6,1-3.2,2.2-4.7c1.2-1.5,3-3,5.6-3.5 c1.3-0.3,2.7-0.2,3.9,0.2c1.3,0.4,2.5,1,3.5,1.8c1.3,1.1,1,0.8,1.2,1.1c0.1,0.1,0.2,0.3,0.3,0.4c0,0.1,0.1,0,0.1-0.1l0.1-0.2 c0.1-0.1,0.1-0.2,0.2-0.4l0.1-0.2l0.2-0.4c0,0,0.3-0.4,0.5-0.8c0.2-0.3,0.4-0.7,0.6-1c1.7-2.7,3.7-5.6,6.4-8.5c2.6-2.9,6-5.7,10-7.8 c4-2.1,8.4-3.6,13.1-4.7c4.7-1.1,9.6-1.9,14.9-2.4c2.6-0.2,5.4-0.4,8.2-0.5c2.8-0.1,5.7-0.1,8.8,0.2c3.1,0.3,6.4,0.9,9.8,2.3 c3.3,1.4,6.3,3.5,8.8,6.3c2.5,2.7,4.6,6,5.9,9.7c1.3,3.8,1.7,7.9,1.1,11.9c-0.4,2.6-1.1,5.1-2.1,7.5c-0.2,0.4-0.2,0.3-0.2,0.4 l-0.1,0.2c0.4,0.1,0.8,0.1,1.2,0.1l1.5,0.1c0.7,0.1,1.5,0.2,2.3,0.4c0.2,0.1,0.4,0.1,0.6,0.2c0.3,0.1,0.6,0.2,0.8,0.3 c0.5,0.2,1,0.4,1.5,0.7c1.9,1.2,3.2,3.2,3.5,5.4c0.1,1.1,0,2.2-0.2,3.3c-0.1,0.4-0.2,0.8-0.3,1.1l-0.1,0.4c0,0,0,0.1-0.1,0.1 c0,0,0,0,0.1,0.1l0.1,0l0.6,0.2l1.5,0.4c1,0.3,2,0.5,3.1,0.8c2.1,0.5,4.2,1,6.4,1.6c2.1,0.6,4.3,1.4,6.4,2.3 c2.1,0.9,4.2,2.2,6.1,3.8c1.9,1.5,3.5,3.5,4.6,5.5c1.2,2,2,4.1,2.5,6.2c0.6,2.1,0.9,4.1,1.1,6.1c0.2,2,0.3,3.9,0.3,5.9 c-0.1,7.7-2,14.6-4.7,20.4c-2.7,5.8-6.4,10.4-9.9,13.9c-3.6,3.5-7.2,5.9-10.2,7.6c-3.1,1.7-5.6,2.6-7.3,3.1 c-1.7,0.5-2.7,0.5-2.8,0.3c-0.1-0.2,9.3-8.5,10.2-9.6c1.4-1.8,2.7-3.8,3.7-5.9C348.6,290.3,349.5,287.5,349.8,284.6z M974,340.9 c-0.8-1.5-2.4-2.8-4-3.2c-1.6-0.5-2.9-0.4-4.1-0.3c-1.2,0.1-2.1,0.3-3.1,0.4c-2,0.3-3.9,0.6-5.8,1c-3.8,0.8-7.3,1.9-10.4,3.5 c-3,1.5-5.6,3.7-7.3,5.9c-3.1,4-4,8.2-3.8,11.1c-9.5,3.3-19.5,7.2-29.7,12.1c-5.7,2.7-11.4,5.7-17.1,9.2 c-5.7,3.5-11.5,7.6-16.3,13.2c-4.8,5.6-8.3,12.6-10.1,19.9c-0.2,0.9-0.5,1.8-0.6,2.7c-0.2,0.9-0.4,1.8-0.5,2.8 c-0.2,1.8-0.5,3.7-0.6,5.6c-0.3,3.7-0.3,7.4-0.2,11.2c0.3,6.5,1,12.6,1.8,18.5c0.9,5.9,1.8,11.5,2.7,17c1.8,10.9,3.5,21.1,5.2,30.7 c3.3,19.1,6.2,35.5,8.6,49.7c4.8,28.4,7.4,47.8,9.1,61.1c0.7,5.6,1.4,18.3,2.2,23.9c0.2,1.5,0.4,3,0.6,4.4c0.1,0.6,0.2,1.2,0.3,1.7 c0.1,0.8,0.1,1.3,1,1.5c0.6,0.2,1.1,0,1.7-0.3c0.5-0.2,0.6-0.3,0.6-0.8c0-0.5,0-1,0.1-1.4c0.1-2.5,0.1-5.9-0.1-10.5 c-0.1-4.6-0.5-17.6-1.1-24.8c-1.2-14.4-3.5-34.5-7.9-62.4c-2.2-13.9-4.8-29.8-7.9-47.8c-1.5-9-3.1-18.6-4.7-28.8 c-1.5-10.2-3.5-20.9-3.9-32.1c-0.1-3.5-0.1-6.9,0.2-10.2c0.1-1.7,0.4-3.3,0.6-4.9l0.4-2.4c0.1-0.8,0.3-1.6,0.5-2.4 c1.5-6.3,4.4-11.9,8.3-16.6c4-4.7,9.1-8.5,14.4-11.8c5.3-3.3,10.9-6.3,16.3-9.1c10.9-5.5,21.8-9.8,32.1-13.7 c5.1-1.9,10.1-3.7,15-5.3c2.4-0.8,4.8-1.6,7.1-2.4c2.3-0.8,4.9-1.7,7.3-3.4c0.6-0.4,1.2-0.9,1.7-1.5c0.3-0.3,0.5-0.6,0.8-0.9 c0.2-0.3,0.5-0.7,0.7-1c0.8-1.4,1.3-2.9,1.3-4.5C975.1,344.1,974.8,342.4,974,340.9z M970.5,345.2c-0.2,1.5-0.8,2.5-2.3,3.5 c-1.5,1-3.5,1.7-5.8,2.4c-2.4,0.7-4.8,1.4-7.2,2.2c-4.9,1.5-10,3.1-15.3,4.9c-0.5,0.2-0.9,0.3-1.4,0.5c0.4-2.4,1.6-5.5,4.3-8.4 c3.2-3.6,8.9-6,16.1-6.9c1.8-0.3,3.7-0.5,5.6-0.6c1-0.1,2-0.2,2.9-0.2c0.9-0.1,1.6,0,2.1,0.2c0.4,0.2,0.6,0.4,0.9,0.8 C970.5,343.9,970.6,344.5,970.5,345.2z M529.8,325.4c-0.1-0.2-0.1-0.3-0.2-0.6c-0.2-0.4-0.5-1-0.8-1.3c-0.1-0.1-0.2-0.2-0.3-0.2 c-0.2-0.1-0.4-0.2-0.7-0.3c-0.7-0.3-1.6-0.6-2.4-0.9c-3.5-1.2-7.6-1.8-12.1-1.9c-1.6,0-3.2,0-4.7,0.2c-1.5,0.1-2.9,0.3-4.1,0.5 c-1.2,0.2-2.2,0.5-3.1,0.8c-0.4,0.2-0.9,0.4-1.2,0.5l-0.2,0.1c-0.1,0-0.2,0.1-0.2,0.1l-0.1,0c-0.2,0-0.6,0.3-0.5,0.6 c0,0.1,0.1,0.3,0.2,0.4c-0.1,0,0.3,0.3,0.5,0.5c0.2,0.2,0.5,0.4,0.7,0.6c2.4,2.2,3.2,3.5,3.2,4.4c0.1-0.3,0.3-0.6,0.4-0.9 c0.5-0.9,1.2-1.7,2-2.4c1.6-1.3,3.4-1.9,5-2.2c1.3-0.2,2.5-0.3,3.5-0.3c1,0,2,0.1,3,0.2c1,0.1,1.9,0.3,2.8,0.5 c0.6,0.1,2.5,0.6,3.6,1.3c1.2,0.7,2.2,1.8,2.7,3c0.2,0.5,0.4,1.1,0.5,1.7c0.1-0.2,0.2-0.4,0.4-0.5c0.5-0.6,1.1-1.2,1.6-1.8 c0.5-0.6,0.8-1.3,0.8-1.7C529.8,325.6,529.8,325.5,529.8,325.4z M519.9,346.5c-0.3-2.2-0.5-5.4-0.6-10c0-1.2,0-2.4,0-3.8V332 c0,0,0,0,0,0l0,0c0,0,0,0-0.1,0l0,0h0c0,0,0.1,0-0.2,0c-0.7-0.2-1.4-0.3-2.1-0.4c-1.4-0.2-3.2-0.2-4.3,0c-0.7,0.1-1.1,0.3-1.3,0.4 c-0.1,0.1-0.1,0.1-0.2,0.2c-0.1,0.1-0.2,0.3-0.3,0.6c-0.2,0.5-0.4,1.5-0.5,2.5c-0.1,0.9-0.2,1.8-0.3,2.7c-0.2,3.6,0,7,0.2,9.9 c0.1,1.6,0.2,3,0.3,4.3c0,0,0.1,0,0.1,0c0.4-0.1,0.8-0.2,1.2-0.2c0.3-0.1,0.6-0.1,1-0.2c0.6-0.1,1.3-0.2,2-0.3 c0.8-0.1,1.6-0.2,2.4-0.3c0.4,0,0.8-0.1,1.2-0.1c0.7,0,1.3-0.1,2-0.1c0.3,0,0.7,0,1,0C520.8,350.3,520.3,349.1,519.9,346.5z M520.7,362.9c-0.3-1-0.5-2-0.7-3.2l-0.1-0.4c0-0.1-0.1-0.3-0.1-0.3c0,0-0.1-0.1-0.1-0.1c-0.1-0.1-0.1-0.1-0.2-0.1 c0,0-0.1,0-0.2,0.1c-0.1,0-0.1,0.1-0.1,0.1l0,0c0,0,0.1,0-0.2,0c-0.3,0-0.7,0.1-1,0.1c-0.7,0.1-1.4,0.2-2.1,0.3 c-0.6,0.1-1.2,0.2-1.8,0.3c-0.5,0.1-0.9,0.1-1.3,0.2c-0.1,0-0.1,0-0.1,0l0,0c0,0,0,0-0.1,0c0,0-0.1,0-0.1,0c0,0,0,0-0.1,0l0,0 c0,0,0,0,0,0.1c0,0.2,0,0.3,0,0.5c0.1,1.2,0.1,2.3,0.2,3.3c0.1,1.9,0.1,3.3,0,4.4c-0.1,1-0.3,1.7-0.6,2.1c1.1-0.3,2.2-0.6,3.2-0.8 c2.2-0.6,4.3-1.1,6.3-1.6c0.3-0.1,0.5-0.1,0.8-0.2C521.8,366.6,521.2,365,520.7,362.9z M517.6,500.7l-2,0h-4.1 c-0.5-8.3-1-17.1-1.5-26.1c-0.2-4.7-0.5-9.5-0.7-14.3c-0.1,0.2-0.2,0.4-0.4,0.6c-0.6,0.7-1.9,1.5-4.3,2.5c-2.5,1-6.1,2.3-11.6,3.9 c-2.7,0.8-5.9,1.7-9.5,2.6c-3.1,0.8-6.6,1.7-10.6,2.7h0l0,0.9c0,1.3-0.1,2.6-0.1,3.9c-0.1,2.6-0.1,5.1-0.3,7.4 c-0.2,4.7-0.5,9-0.9,12.6c-0.4,3.8-0.9,6.8-1.4,8.8c2.6-0.9,5-1.6,7.1-2.2c2.6-0.7,4.9-1.3,6.9-1.8c4-1,7-1.5,9.1-1.8 c1-0.1,1.8-0.2,2.5-0.2c0.7-17.2,1.8-20.5,3-20.5c1.7,0,3.2,2.3,3.8,50.9c4.7-0.4,9.2-0.8,13.7-1.2c0.5-16.8,1.1-24.9,1.9-28.7 L517.6,500.7z M487.4,509.2c-2,0.7-4.4,1.5-7.1,2.3c-2.7,0.9-5.8,1.8-9,3c-1.3,0.5-2.6,1.1-3.9,1.6l-0.9,0.4 c-0.2,0.1-0.5,0.3-0.6,0.3c0,0-0.1,0-0.1,0c0,0,0,0-0.1,0c0,0,0,0-0.1,0.2c0,0.8-0.1,1.5-0.1,2.2c-0.1,1.4-0.1,2.8-0.2,4.1 c-0.2,2.6-0.4,4.9-0.7,6.9c-0.2,1.5-0.5,2.7-0.8,3.7c10.8-1,21.2-1.9,31.2-2.8c0.1-10.4,0.3-18.8,0.6-25.5 C493.9,506.8,491.3,507.8,487.4,509.2z M466.4,501.1c-0.9,0.6-3,1.2-7.2,1.9c-2.5,0.4-5.7,0.9-9.9,1.3c0.3,2.1,0.5,5.3,0.7,10 c0.2,5,0.3,11.8,0.5,21c3.5-0.3,6.9-0.6,10.3-0.9c-0.4-1-0.7-2.3-1-3.8c-0.4-1.9-0.8-4.3-1.1-6.9c-0.2-1.3-0.3-2.7-0.4-4.2 c-0.1-0.7-0.1-1.5-0.2-2.3c0-0.5-0.1-1.3,0-2.1c0.1-0.7,0.2-1.4,0.5-2.1c0.6-1.2,1.6-2.1,2.9-2.8c0.4-0.2,0.9-0.5,1.3-0.8 c0.4-0.2,0.7-0.4,1.1-0.6c1.2-0.6,2.5-1.2,3.8-1.7C467.2,505.8,466.8,503.8,466.4,501.1z M408.4,508.6c-4,0.4-8,0.8-11.8,1.2 c-1.9,0.2-3.8,0.4-5.6,0.6c-0.9,0.1-1.8,0.2-2.7,0.3c-0.4,0.1-0.9,0.1-1.3,0.2c-0.1,0-0.1,0-0.2,0c-0.1,0-0.2-0.1-0.2,0 c0,0.1-0.1,0.1-0.1,0.2c-0.1,0.8-0.1,1.6-0.2,2.4c-0.1,0.8-0.1,1.6-0.2,2.4c-0.3,3.2-0.7,6.2-1.1,8.8c-1.5,9.7-3.3,15.8-4.5,16.9 c12.1-1.1,24.4-2.2,36.8-3.4c-3.6-1.6-8.8-4.9-14.4-9.1c-7.5-5.6-11.6-8.9-13.5-11.2c-2-2.3-1.9-3.4-1.3-4.4 c0.6-0.9,1.4-1.7,4.1-0.7c2.7,0.9,7.4,3.6,15.6,9.7c8.1,6,13.7,12.4,14.3,15.2c0.9-0.1,1.8-0.2,2.7-0.2c0.7-10.3,1.7-12.4,2.8-12.4 c1.1,0,2.1,0.8,2.9,11.9c4.3-0.4,8.6-0.8,12.7-1.1c0.2-7.9,0.5-14.1,0.8-19c0.4-5.8,0.8-9.6,1.3-12.2 C436.8,505.8,424.9,506.9,408.4,508.6z M408.6,733c-1.5,0.1-3.1,0.1-4.7,0.2c-3.1,0.1-6.4,0.3-9.7,0.4c-3.3,0.1-6.7,0.3-10.3,0.4 c-4.5,0.2-9.1,0.4-13.9,0.5c0-3.2,0.1-6.5,0.1-9.8c-0.4,0-0.9,0-1.3,0h-1.9c-1.3,0-2.5,0-3.7,0c-2.5,0.1-4.9,0.1-7.4,0.1 c-2.4,0.1-4.8,0.1-7.1,0.2c-1.2,0-2.3,0.1-3.5,0.1c-0.2,0-0.6,15-0.7,16.3c-0.4,9.8-0.8,19.7-1.2,29.5c-0.2,5.2-0.4,10.4-0.7,15.7 c-0.1,2.7-0.2,5.4-0.3,8.1c-0.1,1.9-1,4.9,1.7,5.2c0.6,0.1,1.3,0,1.9-0.1c3.1-0.3,6.3,0,9.4-0.1c4,0,8.3-0.1,12.8-0.1 c9-0.1,18.8-0.1,29.8-0.2c3.7,0,7.6,0,11.5-0.1v-4.2c0-29.4,0.3-49.2,0.7-62.5C409.7,732.9,409.2,732.9,408.6,733z M409.6,806.2 c-20.8-0.2-38.4-0.3-53.1-0.6c-1.9,0-3.8-0.1-5.7-0.1c-0.5,0-0.9,0-1.4,0l-0.7,0l-0.3,0c-0.3,0-0.6,0-0.9-0.1c-0.1,0-0.2-0.1-0.2,0 c0,0.1,0,0.1,0,0.2l-0.1,0.4l0,0.5l0,0.2l0,0.5c-0.1,1.6-0.1,3.2-0.2,4.8c-0.2,6.2-0.2,11.8-0.3,16.7c-0.1,9.8-0.3,17.2-0.4,22.6 c-0.1,4.2-0.3,7.3-0.4,9.4c5.2-0.1,10.4-0.2,15.6-0.3c0,1.6,0,3.2,0,4.8v2.8l0-1.6c16.1,0.3,32.7,0.5,49.8,0.8 C410.4,853.3,409.7,831.4,409.6,806.2z M343.3,856.1c-0.3-4.1-0.6-10-0.9-18.5c-0.2-4.2-0.3-9.1-0.4-14.8c0-2.8-0.1-5.8-0.1-9 c0-1.4,0-2.9,0-4.4c-0.1,2.1-0.2,4.3-0.3,6.4c-0.7,15.3-1.3,30.4-2,45.2c1.4,0,2.8,0,4.2-0.1C343.6,859.6,343.5,858.1,343.3,856.1z M348.3,655.2c-0.8,0-1.6,0.1-2.5,0.1c0,0,0,0,0,0c0,0,0,0,0,0s0,0,0,0v0c0,0,0,0,0,0.1l0,1.5c0,4.1,0,8.2,0,12.4c0,1.9,0,3.8,0,5.7 c2.4-0.1,4.9-0.2,7.3-0.3c6-0.3,11.9-0.5,17.8-0.8c0.1-6.4,0.1-12.9,0.2-19.6C363.7,654.6,356.1,654.9,348.3,655.2z M367.6,644.8 l-0.2,0c-0.1,0,0,0-0.2,0h-0.7c-1.8,0-3.6,0-5.3,0c-3.5,0-6.8,0-10,0c-3.2,0-6.1-0.1-8.9-0.1c-1.3,0-2.7,0-3.9-0.1 c-0.6,0-1.2-0.1-1.7-0.1c-0.1,0.5-0.1,1-0.2,1.5c0,0.2-0.1,0.8-0.1,1.3c0,0.5-0.1,1-0.1,1.5c0,0.2,0,0.5-0.1,0.7l0,0.4l0,0.2 c0,0.3-0.1,0.6-0.1,0.8c-0.1,0.6-0.2,1.2-0.2,1.7c0.7,0.1,1.2,0.2,1.8,0.3v-0.5c0-1,0-2,0-3l0-1.5v-0.6c0-0.1,0.1,0,0.2,0l0.7,0 c3.2-0.1,6.3-0.1,9.4-0.2c3.9-0.1,7.8-0.1,11.6-0.2c1.9,0,3.8,0,5.6-0.1l1.4,0h0.6l0.3,0l0.1-0.2c0-0.1,0,0,0.1-0.2l0.2-1.1 c0.1-0.2,0.1-0.4,0.2-0.6L367.6,644.8z M370.6,683.4l0-1.1l0-0.4v-0.1l0-0.2c0-0.2-0.2-0.1-0.3-0.1c-5.5,0.3-11.1,0.6-16.8,0.9 c-10.9,0.6-22.2,1.2-33.7,1.8c0,6.6,0,13.2,0.1,20c0,2,0,4,0,6.1v0.9c3.1,0,6.3,0,9.5,0c0.2,0,0.4-0.1,0.6-0.1 c2.3-0.4,4.7-0.9,7.1-1.3c0.3,0.5,0.6,1,0.9,1.4c2.6,0,5.3,0,8,0c-0.1,2.7-0.2,5.4-0.3,8.1c1-0.1,2-0.1,3-0.2 c2.3-0.1,4.7-0.3,7.2-0.4c2.4-0.1,4.9-0.2,7.4-0.3c1.3,0,2.5-0.1,3.8-0.1c1.1,0,2.2,0,3.2-0.1h0.1c0.1-10.3,0.2-21,0.3-32.3 C370.7,685,370.6,684.2,370.6,683.4z M336.2,719.1c-7.7,0-15-0.1-22-0.1c-0.3,0.1-0.6,0.1-0.9,0.2V719c-1.2,0-2.4,0-3.6,0l-2.3,0.1 c-3.2,0.1-6.4,0.1-9.6,0.2l-1.3,0l-0.3,0c-0.1,0-0.3,0.1-0.2-0.1l0-0.3c-2.5,0-4.9,0-7.3,0c-0.8,11.7-1.5,22.4-2.1,32.1 c2.4-0.2,6.3-0.3,11.6-0.5c4.6-0.1,10.3-0.2,17-0.2c3.3,0,6.9,0,10.7,0h5.9c1.4,0,2.9,0,4.4,0c0.5-10.2,0.9-19.9,1.3-29.2 C337.1,720.5,336.6,719.8,336.2,719.1z M212.2,524.1c-1.3,1.2-2.6,2.3-4,3.4c-0.1,2.2-0.3,4.4-0.4,6.5c1.5,1.2,3.1,2.6,4.9,4 c1.2,0.9,2.3,1.8,3.4,2.7c0.3-6.7,0.6-13.8,1-21.1C215.6,521.1,214,522.5,212.2,524.1z M209.5,514.4c-0.1-0.1-0.2-0.2-0.3-0.2 c-0.2,2.6-0.3,5.1-0.5,7.6c0.3-0.3,0.6-0.5,0.9-0.8c1.5-1.3,2.8-2.5,4.1-3.7C212.3,516.4,210.9,515.5,209.5,514.4z M225.9,511.2 c-1,1-2.1,2.1-3.4,3.4c-0.1,1.4-0.2,2.7-0.2,4c4.6,3.4,8.1,6.1,9.7,7.7c0.2-0.3,0.5-0.5,0.7-0.8v-3.7c0-5.7,0-11.7,0.1-17.8 C231.2,505.7,229.1,508,225.9,511.2z M232.5,490.1c0-0.1-8.4,7.7-9.1,7.5c-0.2,3.1-0.4,8.3-0.6,11.3c3.1-2.9,5.4-4.9,7.1-6.4 c1.1-0.9,1.9-1.5,2.6-2C232.6,500.5,232.5,490.1,232.5,490.1z M227.4,537.5c-1.7,2.2-3.7,4.6-6.1,7.4c4.5,3.5,8.4,6.5,11.2,8.7 c0-7.3,0-14.9,0-23C231.3,532.4,229.6,534.7,227.4,537.5z M222,522.7c-0.4,5.7-0.7,11.2-1,16.6c1-1.1,1.9-2.2,2.7-3.2 c3.2-3.7,5.5-6.6,7.3-8.7C229.1,526.6,225.9,525,222,522.7z M215.6,444.4c-0.3,0.4-0.6,0.9-1,1.4c1.5,1.9,3,4,4.8,6.4 c0.3,0.4,0.6,0.8,0.9,1.2c0.3-5.7,0.6-11.4,0.9-17.3C219.9,438.2,218.1,440.9,215.6,444.4z M232.6,558v-1.8c-3-1.5-7.3-4.1-12.2-7.5 c-0.2,2.4-0.3,4.8-0.5,7.2c-0.4,6.7-0.9,13.1-1.3,19c1.6,1.1,3.1,2.1,4.6,3.1c2.6-1.9,4.6-3.4,6.2-4.5c1.4-1,2.5-1.6,3.2-2.1 C232.6,567.2,232.6,562.7,232.6,558z M232.6,574.6c-0.2,0.2-0.4,0.4-0.7,0.6c-1.3,1.2-3.1,2.8-5.6,4.9c2.5,1.7,4.6,3.1,6.3,4.3 C232.7,581.4,232.6,578.1,232.6,574.6z M218.3,579.4c-0.1,0.8-0.1,1.7-0.2,2.5c0.7-0.5,1.3-1,1.9-1.5 C219.5,580.1,218.9,579.8,218.3,579.4z M233.1,610c-0.1-6.2-0.3-13.9-0.4-22.9c-2.3-1-5.5-2.6-9.1-4.6c-1.7,1.4-3.6,3-5.9,4.7 c-0.4,6-0.8,11.5-1.2,16.5c9.9,6.5,16.7,11.6,16.2,12.3c-0.4,0.7-7.2-2.6-16.5-8.1c-0.2,2.1-0.3,4.1-0.5,6c-0.4,4.3-0.7,8.1-1,11.1 c6.5-3.3,10.8-5.5,13.6-6.7c3-1.4,4.3-1.7,4.9-1.6C233.2,614.8,233.1,612.5,233.1,610z M212.1,555c-2,2.1-4,4-6,5.9 c-0.1,1.8-0.2,3.6-0.4,5.3c1.6,1.1,3.2,2.2,5,3.5c1.4,0.9,2.8,1.9,4.1,2.8c0.2-5.3,0.4-10.9,0.7-16.7c0.1-1.5,0.1-3,0.2-4.6 C214.6,552.4,213.3,553.7,212.1,555z M201.9,430.7c0.9,0.6,2.6,2.3,5.9,6.4c0.3-4.5,0.5-9.2,0.8-13.9 C206,426.3,203.7,428.9,201.9,430.7z M210.2,541.2c-0.9-0.7-1.8-1.5-2.6-2.2c-0.4,5.6-0.7,10.8-1,15.8c0.9-0.9,1.7-1.8,2.6-2.7 c2.4-2.4,4.5-4.7,6.4-6.8C213.8,544.1,212,542.7,210.2,541.2z M201.1,463c-0.9,1.1-1.9,2.2-2.8,3.2c-0.5,0.5-0.9,1-1.2,1.4 c-0.3,0.4-0.4,0.8-0.5,0.9c0,0.1-0.1,0.1,0.2,0.4c0.2,0.3,0.8,0.8,1.2,1.3c0.9,0.9,1.8,1.9,2.7,2.8c1.6,1.7,3.2,3.3,4.6,4.9 c0.1-0.1,0.1-0.2,0.2-0.3c0.4-6.8,0.8-13.9,1.2-21.4C205,458.3,203.2,460.5,201.1,463z M208.4,573.1c-1.1-0.7-2.1-1.4-3-2.1 c-0.5,7.7-1,14.6-1.5,20.7c0,0.4-0.1,0.7-0.1,1.1c0.3-0.3,0.7-0.5,1-0.8c3.6-2.7,6.7-5.1,9.4-7.2c0.1-2.5,0.2-5,0.3-7.6 C212.6,575.9,210.5,574.5,208.4,573.1z M207.4,595.2c-0.6,0.5-1.3,1-1.9,1.4c0.6,0.4,1.2,0.8,1.8,1.1c2.2,1.4,4.4,2.7,6.4,4 c0.1-3.7,0.3-7.6,0.4-11.8C212.1,591.6,209.8,593.3,207.4,595.2z M205.1,601.3c-0.6-0.4-1.2-0.8-1.8-1.1c-1,12.5-1.7,20.9-2.3,26.5 c0.4,0.2,0.9,0.4,1.3,0.6c1.6,0.6,3.1,1.3,4.6,1.9c2.2-1.1,4.3-2.2,6.2-3.1c0-3.2,0.1-7.3,0.2-12.1c0.1-2.3,0.1-4.8,0.2-7.4 C210.9,604.8,208.1,603.1,205.1,601.3z M213.1,630.5c-0.4,0.2-0.7,0.4-1.1,0.6c0.4,0.1,0.7,0.3,1.1,0.4 C213.1,631.2,213.1,630.9,213.1,630.5z M207.2,633.5c-0.3,0.1-0.6,0.3-0.9,0.4c-0.9,0.5-1.8,0.9-2.7,1.3c2-0.3,4.1-0.6,6.2-0.9 C209,634.1,208.1,633.8,207.2,633.5z M200.7,631c-0.1,0-0.2-0.1-0.3-0.1c-0.1,0.6-0.1,1.1-0.2,1.5c0.6-0.3,1.2-0.6,1.8-0.9 C201.6,631.4,201.2,631.2,200.7,631z M232.5,638.5c-6.9,0.8-13.2,1.5-19,2.1c-2.9,0.3-5.6,0.6-8.2,0.9c-1.3,0.1-2.6,0.3-3.8,0.4 l-0.4,0.1H201l-0.2,0c-0.2,0-0.3,0-0.5,0c-0.1,0.3-0.1,0.6-0.2,0.9c-0.2,1.1-0.3,2.1-0.5,3.1c-0.3,2-0.6,3.9-0.9,5.8 c-0.6,3.6-1.1,6.8-1.5,9.7c-0.9,5.7-1.7,9.9-2.3,13c-0.7,3.4-1.2,5.4-1.7,6.6c10.8-0.8,22.5-1.6,35.3-2.6c3.2-0.2,6.4-0.4,9.8-0.7 c1-10.6,2.4-23.9,4.2-40.5C239,637.7,235.7,638.1,232.5,638.5z M243.2,695.9c-0.5,3.1-0.9,5.9-1.3,8.2c26.5-1.5,46.5-2.3,54.4-2.2 c0-1.9,0.1-3.9,0.1-5.7c0-1.7,0.1-3.4,0.1-5.1C289.6,692.2,269.8,693.9,243.2,695.9z M253.7,610.8 C253.7,610.8,253.7,610.8,253.7,610.8c-0.1,1.1-0.2,2.2-0.4,3.3c-0.6,5.1-1.1,10-1.6,14.7c3.7-0.5,7.6-1,11.6-1.5 c0.4-5.6,0.8-11.5,1.2-17.8C260.9,609.9,257.3,610.4,253.7,610.8z M277,674.5C277,674.4,277,674.4,277,674.5c0-0.3,0-0.5,0-0.8 c0.5-9.5,0.9-18.5,1.3-27.2c0,0,0.1,0,0.1,0c0.1-2,0.2-4,0.3-6c0.1-2.5,0.3-4.9,0.4-7.4c-4,0.5-7.8,0.9-11.5,1.4 c-0.3,2.9-0.6,5.7-0.9,8.4c-2.1,17.8-3.7,29.6-4.6,33.4c6.7-0.5,13.6-0.9,20.7-1.4L277,674.5z M279.1,607.4 c-2.8,0.4-5.8,0.8-8.7,1.2c-0.7,6.4-1.3,12.3-1.9,17.9c3.6-0.5,7.3-1,11.1-1.5c0.3-6,0.7-12,1-17.9 C280.1,607.3,279.6,607.4,279.1,607.4z M262.8,635c-4.2,0.5-8.1,1-12,1.4c-1.9,16.7-3.6,30.2-5,40.9c5-0.3,10.1-0.7,15.3-1.1 c-0.3-3.8,0.1-15.7,1.2-33.9C262.4,640,262.6,637.5,262.8,635z M244.7,685.4c-0.3,2.5-0.7,4.8-1,6.9c26.4-1.4,45.9-2.2,52.8-2.1 c0-1.2,0-2.3,0.1-3.5c0-1.6,0.1-3.1,0.1-4.6V682l0,0C277.8,683.2,260.5,684.3,244.7,685.4z M310,679.2c-1.6-0.2-2.9-0.5-4-0.7 c-0.4-0.1-0.7-0.1-1-0.2c-0.2,10.3-0.4,21.2-0.6,32.6l2.7-0.1l3-0.1l1.4-0.1c0,0,0,0,0,0v-0.4c0-2,0-4,0-6.1c0-8.4,0-16.6,0-24.8 C311.1,679.4,310.5,679.3,310,679.2z M305.6,642.1c-0.3-3.5-0.5-7.7-0.8-12.6c-0.1-2.4-0.2-5-0.3-7.8c-0.1-1.4-0.1-2.8-0.2-4.2 c0-0.7-0.1-1.3-0.1-2l-0.1-0.5l-0.3-0.1l-0.1-0.1l-0.1,0c0,0,0,0-0.2-0.1c-0.8-0.4-1.6-0.8-2.4-1.2c-1.6-0.8-3.3-1.6-5-2.5 c-2.4-1.2-5-2.5-7.6-3.8c-0.4,7.4-0.8,15-1.2,22.6c5.7,5.8,11.7,12,18,18.3c0-1.2,0.1-2.3,0.1-3.6c0-0.5,0-1.1,0-1.6 c0-0.1,0-0.3,0-0.4C305.7,642.4,305.7,642.3,305.6,642.1z M290.8,644.6c-1.3-1.3-2.5-2.6-3.8-3.9l-0.1-0.1c0,0.1,0,0.2,0,0.2 c-0.1,1.5-0.2,2.9-0.2,4.4c1.2-0.2,2.4-0.4,3.6-0.5l0.4-0.1h0.2L290.8,644.6z M313.9,642.9c-0.1,0,0.1,0-0.3,0l-0.4,0h-0.1l-0.2,0 l-0.3,0c-0.1,0-0.1,0.1-0.1,0.2l-0.1,0.2l0,0.1c0,0,0,0,0,0.1l0,0.4c-0.3,3.8-0.6,7.2-0.9,10.2c-0.6,5.9-1.1,10.3-1.6,13.4 c-1,6.3-1.8,7.8-2.6,7.8c-0.8,0-1.6-0.5-1.9-6.4c-0.2-2.9-0.2-7.2-0.2-13.4c0-1.5,0-3.1,0.1-4.8c-6.2,0.9-12.6,1.9-19.2,2.9 c-0.4,7.2-0.8,14.2-1.1,21v0.1c6.4-0.4,13.1-0.9,19.9-1.4c0,1.3-0.1,2.7-0.1,4.1c0.4,0,0.7,0,1.1,0c1.1,0,2.5,0,4.1,0.1 c0.4,0,0.8,0,1.2,0h0.2v-0.7c0.8,0,1.5-0.1,2.3-0.1v-3.8c0-1.5,0-2.9,0-4.3c0.1-5.7,0.1-10.9,0.1-15.7c0-2.4,0.1-4.7,0.1-7 c0-0.6,0-1.1,0-1.6v-0.4l0-0.2c0,0,0,0,0,0l0-0.1c0-0.1,0-0.2,0.1-0.4C314.2,643,314.1,642.9,313.9,642.9z M283.2,556.5 c-0.2,0-0.5-0.1-0.7-0.1c-0.2,0-0.3,0-0.5,0c-2.1-0.2-4.2-0.3-6.3-0.5c-1.6,16.2-3.1,31.2-4.5,44.6c3.3-0.4,6.6-0.7,9.8-1.1 c0.1-1.4,0.2-2.8,0.2-4.2c0.4-7.3,0.8-14.5,1.2-21.5c0.2-3.5,0.4-7,0.6-10.4c0.1-1.7,0.2-3.4,0.3-5.1l0.1-1.2l0-0.1l0-0.2 L283.2,556.5z M231.4,631.4c0.9-0.1,2.7-0.3,3-1.4c0-0.2,0-0.4,0-0.6c-0.6-3.7-0.9-7.4-1-11.2c-0.5,0.5-1.3,1.2-2.8,2.2 c-2.7,1.8-7.6,4.8-16.2,9.4c-0.1,0.7-0.2,1.4-0.2,2c1.3,0.5,2.6,1,3.8,1.4C222.1,632.7,226.6,632.1,231.4,631.4z M232.5,418.7 c0.2,0.4,0.5,0.9,0.7,1.3c0-0.4,0-0.7,0-1.1c0-0.5,0-1,0-1.4C233,417.9,232.7,418.2,232.5,418.7z M233.6,409.3 c-1.6-1.1-3.1-2.2-4.7-3.3c-0.1,1.8-0.2,3.5-0.3,5.3c0.6,1.1,1.2,2.3,2,3.6c0.2,0.4,0.4,0.8,0.6,1.2c0.8-0.9,1.5-1.7,2.1-2.4 c0-0.5,0.1-1,0.1-1.6l0.1-1.5l0-0.7l0-0.4v-0.2C233.6,409.3,233.6,409.3,233.6,409.3C233.6,409.3,233.6,409.3,233.6,409.3z M228.1,419.1c0,0.2,0,0.5,0,0.7c0.1-0.1,0.2-0.2,0.3-0.3C228.3,419.3,228.2,419.2,228.1,419.1z M230.1,422.4 c-0.7,1.1-1.5,2.3-2.4,3.5c-0.1,1.6-0.2,3.2-0.3,4.8c1.2,1,3,2.9,5.5,6.2c0-1.8,0-3.5,0.1-5.3c0-1.6,0-3.2,0.1-4.8 C232.2,425.6,231.2,424.1,230.1,422.4z M230.7,440.8c-1.5-2-2.6-3.6-3.6-4.9c-0.3,5.3-0.6,10.5-0.9,15.7c1.4-1.5,2.7-2.8,3.8-4.1 c1.1-1.2,2-2.3,2.9-3.2v-0.6C232.2,442.8,231.5,441.8,230.7,440.8z M232.3,449.3c-1.5,2.2-3.4,4.7-5.7,7.3c-0.2,0.3-0.5,0.5-0.7,0.8 c-0.1,0.9-0.1,1.8-0.2,2.8c0.2,0.2,0.3,0.3,0.5,0.5c1.4,1.5,2.6,3,3.7,4.4c1,1.3,1.9,2.5,2.7,3.5c0-4,0.1-8,0.1-12.1 c0-2.6,0.1-5.3,0.1-7.9C232.7,448.8,232.5,449,232.3,449.3z M232.6,485.8l0-1.5c0-2.8,0-9.7,0.1-12.5c-0.6-0.3-1.2-0.6-1.9-1.1 c-1.2-0.8-2.4-2-3.6-3.2c-0.6-0.5-1.1-1.1-1.7-1.7c-0.1,1.3-0.2,2.7-0.2,4c-0.3,5.2-1.6,19.5-1.9,24.5l0.4-0.1c0,0,7.8-6.6,8.6-6.8 c0.1,0,0.2,0,0.2-0.1c0-0.1,0-0.2,0-0.3C232.6,487,232.6,486.2,232.6,485.8z M224.2,373.7c-0.4-0.2-0.9-0.3-1.4-0.4 c-0.5-0.1-0.9-0.2-1.3-0.3c-0.4-0.1-0.8-0.1-1.3-0.1c-0.7,0-1.4,0.1-2,0.3c-0.1,0-0.4,0.1-0.4,0.1l0,0l-0.1,0.9 c-0.1,0.9-0.1,1.8-0.2,2.8c-0.2,3.7-0.4,7.3-0.6,10.9c-0.1,1.8-0.2,3.6-0.3,5.3c2-0.5,4.1-1.1,6.1-1.6c0.3,0.2,0.6,0.4,0.9,0.6 c0-0.1,0-0.2,0-0.4c0.2-4.6,0.5-9.1,0.7-13.8l0.2-3.5l0-0.7L224.2,373.7z M221,400.4c-1.7,0.4-3.3,0.9-5,1.3 c-0.1,2.1-0.2,4.1-0.4,6.1c2.3-2.7,3.8-4.4,4.9-5.3c-0.2-1,0.1-1.4,0.4-1.6c0.2-0.1,0.4-0.2,0.6-0.1 C221.3,400.6,221.1,400.5,221,400.4z M221.6,405.9c-1.2,1.9-3.2,4.7-6.4,8.9c-0.1,1.2-0.1,2.4-0.2,3.6c1.2,1.1,2.4,2.2,3.7,3.4 c1.1,1,2.1,1.9,3.1,2.8c0.1-1.9,0.2-3.9,0.3-5.8c0.2-3.4,0.4-6.8,0.5-10.3C222.2,407.4,221.8,406.6,221.6,405.9z M220.3,428.5 c-1.4-1.2-2.9-2.5-4.3-3.8c-0.4-0.4-0.9-0.8-1.3-1.2c-0.4,5.9-0.7,11.6-1,17.2c2.5-3.2,4.4-5.7,5.8-7.5c0.8-1,1.5-1.8,2-2.5 c0-0.4,0-0.8,0.1-1.2C221.1,429.3,220.7,428.9,220.3,428.5z M214.7,452.7c-0.6-0.8-1.1-1.5-1.7-2.3c-0.4,6.6-0.8,13-1.2,19.1 c0.3-0.3,0.6-0.7,0.9-1c3.3-3.6,5.6-5.8,7.1-7.2c0-0.5,0.1-1,0.1-1.5C216.8,456.1,215.3,454,214.7,452.7z M215.8,471.4 c-1.2,1.2-2.7,2.4-3.8,3.5c0,0.4-0.9,6.9-1,9.1c0,0.2,0.9,1,1,1.2c0.3,0.4,0.7,0.8,1,1.2c0.6,0.7,1.2,1.4,1.7,2.1 c1,1.2,1.8,2.5,3.3,3.2c0,0,0.1,0,0.1,0c0.1,0,0.1-0.1,0.2-0.1c0.2-0.3,0.3-0.7,0.3-1c0.1-7,0.6-14,0.9-20.9c0-0.8,0.1-1.6,0.1-2.4 C218.6,468.3,217.4,469.7,215.8,471.4z M218.2,494.4c-1.1-0.8-5.3-5.2-7.4-7c-0.5,7.7-0.9,15-1.3,22c0.8,0.6,1.6,1.1,2.4,1.7 c1.7,1.2,3.3,2.3,4.8,3.5c0.2-0.2,0.5-0.4,0.7-0.6C217.6,508.5,217.9,495,218.2,494.4z M203.2,405.1c-0.1,0.7-0.2,1.4-0.2,2.1 c1.6,1.4,3.6,3.3,6.2,5.8c0-0.5,0.1-1,0.1-1.5c0.2-2.7,0.3-5.4,0.5-8.1C207.6,403.9,205.4,404.5,203.2,405.1z M202.5,411.5 c-0.7,5.6-1.3,11.2-1.9,16.6c1.8-2.9,4.4-6.7,7.5-10.8C205.8,415,203.9,413.1,202.5,411.5z M200.6,431.9c-0.2,0.2-0.4,0.3-0.5,0.5 c-1.2,10.3-2.4,20.2-3.5,29.6c0.5-0.6,0.9-1.1,1.4-1.7c3.6-4.2,6.6-7.9,9.1-11.1c0.1-2.1,0.2-4.2,0.4-6.3 C202.9,436.5,201.1,433.4,200.6,431.9z M198,475.6c-0.9-0.9-1.8-1.7-2.8-2.6c0,0,0,0,0,0c-0.5,4.5-1,8.8-1.5,13.1 c-0.2,2-0.5,4-0.7,6c1.7-1.9,3.7-4.1,5.9-6.4c1.8-1.9,3.3-3.5,4.6-4.8C201.8,479.2,200,477.5,198,475.6z M201.9,488.5 c-3.5,3.7-6.9,6.7-9.5,8.6c0,0.1,0,0.2,0,0.2c0.2,0.2,0.5,0.3,0.8,0.5c2.1,1.3,5.4,3.7,10.8,7.6c0.4-6.5,0.7-13.3,1.1-20.4 C204.1,486,203.1,487.2,201.9,488.5z M192,500.6c-0.8,6.4-1.5,12.5-2.2,18.4c0.6,0.3,1.4,0.9,2.6,1.9c1.6,1.3,3.8,3.2,7,6 c0.5,0.4,1.1,0.9,1.7,1.4c0.5-0.5,1.1-0.9,1.7-1.4c0.2-2.9,0.3-5.9,0.5-9c0.1-2.5,0.3-5.1,0.4-7.7 C197.6,505.7,194.1,502.6,192,500.6z M191,523.6c-0.7-0.8-1.2-1.4-1.6-1.9c-0.7,6.2-1.5,12.1-2.2,17.8c1.2-1,2.7-2.2,4.4-3.5 c1.9-1.5,4.1-3.2,6.4-5.2C194.7,527.6,192.5,525.3,191,523.6z M200.8,533.3c-2.7,2-5.3,3.7-7.5,5c-2.6,1.6-4.8,2.7-6.3,3.4 c-0.4,3.3-0.8,6.5-1.2,9.7c0,0.3-0.1,0.6-0.1,0.9c0.6,0.3,1.3,0.8,2.3,1.4c2.3,1.5,5.8,4.1,11.4,8.1c0.5-0.5,1-1,1.6-1.5 c0.4-7.7,0.8-16.3,1.3-25.7C201.8,534.2,201.3,533.7,200.8,533.3z M186.9,556.6c-0.6-0.6-1.1-1.1-1.5-1.5c-1,7.9-1.9,15.4-2.8,22.3 c3-2.8,8-7.3,13.9-12.9C191.9,561,188.9,558.4,186.9,556.6z M199.6,566.8c-3.4,3-6.7,5.6-9.5,7.6c-3.3,2.4-5.9,4.2-7.8,5.3 c-0.1,0.7-0.2,1.3-0.2,2c0.6,0.3,1.5,0.8,2.8,1.6c2.6,1.7,6.9,4.7,14.6,9.5c0.3-7.2,0.7-15.6,1.2-25.3 C200.3,567.3,199.9,567.1,199.6,566.8z M183.7,586.2c-0.8-0.8-1.5-1.4-1.9-2c-1.4,10.9-2.6,20.6-3.7,29.2c3.1-3,10.7-9.1,20.3-16.4 C190.7,592,186.2,588.5,183.7,586.2z M177.8,615.1c0,0.3-0.1,0.6-0.1,0.9c0.6,0.2,1.3,0.5,2.3,0.9c1.7,0.7,4.1,2,7.7,3.7 c2.8,1.3,6.2,3,10.5,4.9c0.1-5.2,0.3-12.8,0.8-24C189.1,608.6,180.9,613.8,177.8,615.1z M176.5,645.5c-0.4-0.9,9.1-5.8,21.9-12.2 c-0.1-0.9-0.1-2-0.1-3.5c-10.3-4.5-15.9-8-19-10.1c-0.8-0.5-1.4-1-1.9-1.4c-0.8,6.5-1.6,12.4-2.3,17.6c-0.4,3.1-0.8,6-1.2,8.7 c1.7,0.8,4.9,2.9,10.8,7.4c3.1,2.4,5.9,4.7,7.8,6.6c0.2-1.9,0.4-4,0.6-6.3c0.2-2,0.4-4.1,0.6-6.3c0.1-1.1,0.2-2.3,0.4-3.5 c0.1-1,0.2-2,0.3-3.1C184.2,644,176.8,646.3,176.5,645.5z M241.3,707.9c-1.8,10-3,12.1-3.9,12c-1-0.1-1.9-1-1.4-11.5 c-13.3,1-28,2-43.5,3c-95.9,6.2-107.7,6.1-107.8,5c-0.1-1.1,3.8-2.3,107.5-9c15.7-1,30.5-1.9,44-2.7c0.1-2.3,0.3-5,0.6-8.1 c-13.7,1-28.9,2.1-45,3.1c-95.9,6.2-107.7,6.1-107.8,4.9c-0.1-1.1,3.8-2.3,107.5-9c16.3-1.1,31.7-2,45.6-2.8 c0.2-2.1,0.4-4.4,0.6-6.9c-1.2,0.1-2.4,0.2-3.6,0.2c-19.9,1.2-37.3,2.3-52.6,3.3c-25.3,1.5-44.7,2.6-59.5,3.3 c-3.6,0.4-7.5,0.7-11.5,1.1c-9.1,0.8-19.3,1.7-30.3,2.7c-0.3,2.7-0.6,4-0.8,4c-0.1,0-0.2-0.5-0.2-1.3c0,0.1,0,0.1,0,0.1 c-0.2,2-0.5,4-0.7,6c-0.5,4-0.9,8.2-1.4,12.4c-0.3,2.4-0.5,4.9-0.8,7.3c2.5-0.5,6.4-1,12.4-1.6c7.9-0.8,19.3-1.8,36.1-3 c8.4-0.6,18.1-1.3,29.3-2c11.3-0.7,24.1-1.6,38.7-2.5c24.3,2.8,53.4,6.1,88.2,10.1c0.2-4.7,0.5-9.6,0.8-14.7c4.7,0,9.6,0,14.6,0 v-0.2c0-1.7,0.1-3.4,0.1-5.1c0-1,0-2,0.1-2.9C288.4,704.1,268.1,705.9,241.3,707.9z M51.9,748.3c4,4,8.1,8,12.1,12 c0.6-5.6,1.2-11.4,1.8-17.6c0.3-3.1,0.7-6.1,1-9.1C62.6,737.8,57.6,742.7,51.9,748.3z M49,751c-4.2,4.1-8.9,8.6-13.9,13.6 c3.8,5,7.9,10.5,12.2,16.3c5.4-4.5,10.7-9,16-13.4c0.1-0.7,0.1-1.3,0.2-2C58.6,760.6,53.8,755.8,49,751z M56.1,720.2 c0.6,0.4,1.2,0.8,1.8,1.2c1.7,1.2,3.6,2.6,5.7,4c1,0.7,2.1,1.5,3.2,2.3c0.2,0.2,0.5,0.4,0.8,0.5c0.5-3.9,0.9-7.7,1.4-11.5 c0.3-2.2,0.6-4.5,0.9-6.7C65.3,713.4,60.7,716.7,56.1,720.2z M64.3,703c-11.2,5.1-20.1,8.1-21.7,7.9c1.5,1,3.7,2.4,6.6,4.4 c1.1,0.7,2.2,1.6,3.5,2.5c5.2-3.8,10.3-7.5,15.3-11.2C66.8,705.4,65.5,704.2,64.3,703z M67.9,701.4c0.9,0.8,1.8,1.7,2.7,2.5 c0.2-1.4,0.4-2.8,0.6-4.1C70,700.3,68.9,700.9,67.9,701.4z M71,666.6c-0.6-0.4-1.2-0.8-1.8-1.1c-1.1,13.8-1.9,22.6-2.5,28 c-0.2,1.7-0.4,3.1-0.5,4.2c1.4-0.7,2.8-1.4,4.3-2.1c0.5-0.2,0.9-0.5,1.4-0.7c0.3-1.8,0.5-3.7,0.8-5.5c2.2-0.1,4.3-0.3,6.4-0.4 c0-2.8,0.1-6.1,0.2-9.8c0.1-2.3,0.1-4.8,0.2-7.5C76.8,670.1,74,668.4,71,666.6z M78.1,589.4c-1.3,1.2-2.6,2.3-4,3.4 c-0.1,2.2-0.3,4.4-0.4,6.5c1.5,1.2,3.1,2.6,4.9,4c1.2,0.9,2.3,1.8,3.4,2.7c0.3-6.7,0.6-13.8,1-21.1 C81.5,586.4,79.9,587.8,78.1,589.4z M75.4,579.7c-0.1-0.1-0.2-0.2-0.3-0.2c-0.2,2.6-0.3,5.1-0.5,7.6c0.3-0.3,0.6-0.5,0.9-0.8 c1.5-1.3,2.8-2.5,4.1-3.7C78.2,581.7,76.8,580.7,75.4,579.7z M96.7,548.5c-1.1,1.6-2.5,3.6-4.1,5.8c-0.8,1.1-1.7,2.3-2.6,3.5 c-0.1,0.1-0.2,0.2-0.2,0.3c-0.3,5.5-0.7,10.8-1,16c3.1-2.9,5.4-5,7.1-6.4c1.2-1,2.1-1.7,2.8-2.2c0-1.6,0-3.2,0-4.7 c0-5.1,0.1-10.3,0.1-15.6C98.3,546.1,97.6,547.2,96.7,548.5z M98.7,639.6c-2.4,1.9-4.7,3.7-7,5.5c2.8,1.9,5.2,3.5,7,4.8 C98.7,646.7,98.7,643.2,98.7,639.6z M98.6,569.2c-1.4,1.6-3.5,4-6.8,7.3c-1,1-2.1,2.1-3.4,3.4c-0.1,1.4-0.2,2.7-0.2,4 c4.6,3.4,8.1,6.1,9.7,7.7c0.3-0.4,0.6-0.7,0.8-1c0-6.9,0-14.1,0.1-21.5C98.7,569.1,98.6,569.2,98.6,569.2z M98.6,595.6 c-1.3,1.9-3,4.3-5.3,7.2c-1.7,2.2-3.7,4.6-6.1,7.4c4.6,3.6,8.6,6.7,11.4,8.9C98.6,611.6,98.6,603.8,98.6,595.6z M87.9,587.9 c-0.4,5.7-0.7,11.2-1,16.6c1-1.1,1.9-2.2,2.7-3.2c3.2-3.7,5.5-6.6,7.3-8.7C95,591.9,91.8,590.3,87.9,587.9z M80.4,511 c1.5,1.9,3.1,4,4.9,6.5c0.3,0.4,0.6,0.8,0.9,1.2c0.3-5.7,0.6-11.6,0.9-17.5C85.6,503.6,83.5,506.8,80.4,511z M98.7,631.4 c0-3.2,0-6.4,0-9.8c-3-1.5-7.3-4.1-12.4-7.6c-0.2,2.4-0.3,4.8-0.5,7.2c-0.4,6.7-0.9,13.1-1.3,19c1.6,1.1,3.1,2.1,4.5,3 c3.3-2.4,6.5-4.8,9.6-7.1C98.7,634.6,98.7,633,98.7,631.4z M84.2,644.7c-0.1,0.8-0.1,1.5-0.2,2.3c0.6-0.4,1.2-0.9,1.8-1.3 C85.3,645.3,84.7,645,84.2,644.7z M99.1,677.6c-0.2-6.6-0.3-15-0.4-25.1c-2.5-1.1-5.9-2.8-10-5.1c-1.7,1.3-3.4,2.6-5.1,3.9 c-0.5,6.5-0.9,12.4-1.3,17.7c9.9,6.5,16.7,11.6,16.2,12.3c-0.4,0.7-7.2-2.7-16.5-8.1c-0.2,2.1-0.3,4.1-0.5,6 c-0.3,3.6-0.6,6.8-0.8,9.6c1.1-0.1,2.2-0.1,3.2-0.2c4.7-2.4,7.9-4,10.2-5c3.2-1.4,4.5-1.7,5-1.6C99.2,680.7,99.2,679.2,99.1,677.6z M98.4,483.9c0.3,0.6,0.6,1.2,0.9,1.8c0-0.8,0-1.6,0-2.4c0-0.3,0-0.6,0-1C99,482.9,98.7,483.4,98.4,483.9z M99.3,683.5 c-0.4,0.5-1.3,1.2-2.9,2.3c-1,0.7-2.2,1.5-3.8,2.4c0.3,0,0.7,0,1-0.1c2-0.1,3.9-0.2,5.9-0.3C99.4,686.6,99.3,685.1,99.3,683.5z M77.9,620.3c-2,2.1-4,4-6,5.9c-0.1,1.8-0.2,3.6-0.4,5.3c1.6,1.1,3.2,2.2,5,3.5c1.4,0.9,2.8,1.9,4.1,2.8c0.2-5.3,0.5-10.9,0.7-16.7 c0.1-1.5,0.1-3,0.2-4.6C80.4,617.7,79.2,619,77.9,620.3z M67.7,496c0.9,0.6,2.6,2.3,5.9,6.4c0.3-4.5,0.5-9.2,0.8-13.9 C71.9,491.6,69.6,494.2,67.7,496z M76.1,606.5c-0.9-0.7-1.8-1.5-2.6-2.2c-0.4,5.6-0.7,10.8-1,15.8c0.9-0.9,1.7-1.8,2.6-2.7 c2.3-2.4,4.5-4.7,6.4-6.8C79.7,609.3,77.9,608,76.1,606.5z M69.7,524.9c-1.6,2-3.4,4.1-5.3,6.3c-0.2,0.3-0.5,0.5-0.7,0.8 c-0.2,0.3-0.4,0.5-0.6,0.7c-0.3,0.5-0.5,0.9-0.5,1c0,0.1,0,0.1,0,0.1c0,0.1,0.2,0.2,0.4,0.5c0.5,0.6,1.1,1.1,1.6,1.7 c2.3,2.3,4.5,4.6,6.6,6.9c0-0.1,0.1-0.1,0.1-0.2c0.4-6.9,0.8-14,1.2-21.5C71.7,522.5,70.7,523.7,69.7,524.9z M74.3,638.4 c-1.1-0.7-2.1-1.4-3-2.1c-0.5,7.7-1,14.6-1.5,20.7c0,0.2,0,0.3,0,0.4c3.6-2.6,7-5.2,10.4-7.7c0.1-2.4,0.2-4.8,0.3-7.3 C78.5,641.2,76.4,639.8,74.3,638.4z M70.3,661.3c0.9,0.6,1.9,1.2,2.9,1.8c2.2,1.4,4.4,2.7,6.4,4c0.1-4,0.3-8.4,0.5-13.1 C76.6,656.7,73.4,659.1,70.3,661.3z M192.3,723.7c-13.1,0.7-24.8,1.3-35.2,1.8c-10.5,0.5-19.8,0.9-28,1.3 c-16.3,0.7-28.1,1.1-36.6,1.2c-8.5,0.2-13.7,0.1-16.8-0.1c-0.4,3.8-0.9,7.7-1.3,11.7c4.8-0.8,15.2-1.7,30.2-2.8 c10.5-0.8,23.2-1.6,37.8-2.5c7.3-0.4,15-0.9,23.1-1.4c8.2-0.5,16.9-0.9,25.9-1.4c13.7,1.8,28.2,3.7,43.3,5.7 c13.5,1.8,27.6,3.8,42.1,5.7v-9.1c0,0,0,0,0,0C243.5,729.8,215.5,726.5,192.3,723.7z M99.6,474.4c-1.6-1.1-3.2-2.3-4.8-3.4 c-0.1,1.9-0.2,3.7-0.3,5.5c0.6,1.1,1.2,2.3,2,3.6c0.2,0.4,0.4,0.8,0.6,1.2c0.9-1.1,1.7-1.9,2.4-2.6c0-0.6,0.1-1.1,0.1-1.7l0.1-1.4 l0-1.1C99.7,474.5,99.7,474.5,99.6,474.4z M94,484.3c0,0.2,0,0.5-0.1,0.7c0.1-0.1,0.2-0.2,0.3-0.3C94.2,484.6,94.1,484.5,94,484.3z M96,487.7c-0.7,1.1-1.5,2.3-2.4,3.5c-0.1,1.6-0.2,3.2-0.3,4.8c1.3,1.1,3.1,3,5.8,6.5c0-2.5,0-4.9,0.1-7.4c0-0.9,0-1.8,0-2.7 C98.3,491.2,97.2,489.6,96,487.7z M96.6,506.1c-1.5-2-2.6-3.6-3.6-4.9c-0.3,5.3-0.6,10.5-0.9,15.7c1.4-1.5,2.7-2.8,3.8-4.1 c1.2-1.3,2.3-2.5,3.1-3.4C98.3,508.3,97.5,507.2,96.6,506.1z M98.2,514.6c-1.5,2.2-3.4,4.7-5.7,7.3c-0.2,0.3-0.5,0.5-0.7,0.8 c-0.1,0.9-0.1,1.8-0.2,2.8c0.2,0.2,0.3,0.3,0.5,0.5c1.4,1.5,2.6,3,3.7,4.4c1.1,1.3,2,2.6,2.8,3.6c0.1,0.1,0.2,0.2,0.3,0.3 c0-5.3,0.1-10.7,0.1-16.1c0-1.6,0-3.2,0-4.8C98.8,513.7,98.5,514.2,98.2,514.6z M96.7,536c-1.2-0.8-2.4-2-3.6-3.2 c-0.6-0.5-1.1-1.1-1.7-1.7c-0.1,1.3-0.2,2.7-0.2,4c-0.4,6.1-0.7,12.1-1.1,18c0.2-0.2,0.3-0.4,0.5-0.5c1.8-2.1,3.4-3.9,4.7-5.3 c1.6-1.7,2.8-3,3.6-3.6c0-2.1,0-4.2,0-6.4C98.2,537,97.5,536.6,96.7,536z M90,439c-0.4-0.2-0.9-0.3-1.4-0.4 c-0.5-0.2-0.9-0.2-1.3-0.3c-0.4-0.1-0.8-0.1-1.3-0.1c-0.7,0-1.4,0.1-2,0.3c-0.1,0-0.4,0.1-0.4,0.1l-0.1,0.9 c-0.1,0.9-0.1,1.8-0.2,2.8c-0.2,3.7-0.4,7.3-0.6,10.8c-0.1,1.8-0.2,3.7-0.3,5.5c2-0.5,4.1-1.1,6.1-1.6c0.3,0.2,0.6,0.5,0.9,0.7 c0-0.2,0-0.4,0-0.6c0.2-4.6,0.5-9.1,0.7-13.8l0.2-3.5l0-0.7L90,439z M86.9,465.5c-1.7,0.4-3.3,0.9-5,1.3c-0.1,2.1-0.3,4.2-0.4,6.2 c2.3-2.7,3.8-4.4,4.9-5.3c-0.2-1.1,0.1-1.4,0.4-1.6c0.4-0.2,0.8-0.3,1.7,0.6c0.1,0,0.1,0.1,0.2,0.1c0.1,0.1,0.1,0.1,0.2,0.2 c0-0.1,0-0.1,0-0.2C88.2,466.4,87.6,466,86.9,465.5z M87.5,471.1c-1.2,1.9-3.2,4.7-6.4,8.9c-0.1,1.2-0.1,2.4-0.2,3.6 c1.2,1.1,2.4,2.2,3.7,3.4c1.1,1,2.1,1.9,3.1,2.8c0.1-1.9,0.2-3.9,0.3-5.8c0.2-3.4,0.4-6.9,0.5-10.3 C88.1,472.7,87.7,471.9,87.5,471.1z M86.2,493.8c-1.4-1.2-2.9-2.5-4.3-3.8c-0.4-0.4-0.9-0.8-1.3-1.2c-0.4,6-0.7,11.8-1.1,17.4 c1.8-2.3,3.3-4.3,4.6-5.9c1.4-1.8,2.4-3.1,3.3-4.1c0-0.5,0.1-0.9,0.1-1.4C87,494.5,86.6,494.2,86.2,493.8z M80.6,518 c-0.6-0.8-1.1-1.5-1.7-2.3c-0.4,6.6-0.8,13-1.2,19.1c0.3-0.3,0.6-0.7,0.9-1c3.3-3.6,5.6-5.8,7.1-7.2c0-0.5,0.1-1,0.1-1.5 C82.7,521.4,81.2,519.3,80.6,518z M81.7,536.7c-1.2,1.2-2.3,2.4-3.4,3.4c0,0.4-0.2,1-0.8,2.1c0,0.1-0.1,0.2-0.1,0.2 c-0.1,2.2-0.3,4.3-0.4,6.4c1.8,1.9,3.5,3.7,5.1,5.4c0.8,0.9,1.6,1.7,2.3,2.5c0.4-7.1,0.7-14.5,1.1-22c0-0.8,0.1-1.6,0.1-2.4 C84.5,533.6,83.3,535,81.7,536.7z M76.6,554c-0.4,7.2-0.9,14.1-1.3,20.6c0.8,0.6,1.6,1.1,2.4,1.7c1.7,1.2,3.3,2.4,4.8,3.5 c0.2-0.2,0.5-0.4,0.7-0.6c0.3-5.7,0.5-11.7,0.8-17.7C81.8,559.2,79.3,556.7,76.6,554z M69.1,470.3c-0.1,0.7-0.2,1.4-0.2,2.1 c1.6,1.4,3.6,3.3,6.3,5.8c0-0.5,0.1-1,0.1-1.4c0.2-2.7,0.3-5.5,0.5-8.2C73.5,469.1,71.3,469.7,69.1,470.3z M68.3,476.7 c-0.6,5.5-1.3,11.1-1.9,16.7c1.8-2.9,4.4-6.7,7.6-10.8C71.6,480.3,69.8,478.3,68.3,476.7z M66.4,497.2c-0.2,0.2-0.4,0.3-0.5,0.5 c-1.1,9.7-2.2,19.6-3.4,29.5c1.2-1.3,2.3-2.7,3.4-3.9c2.7-3.2,5-6.1,7.1-8.6c0.1-2.1,0.2-4.3,0.4-6.5 C68.8,501.7,67,498.7,66.4,497.2z M61.7,539c-0.2-0.2-0.4-0.4-0.5-0.5c-0.7,6.3-1.5,12.6-2.2,18.7c1.7-1.9,3.6-4,5.7-6.2 c1.6-1.7,3-3.2,4.3-4.5C66.7,544.1,64.2,541.6,61.7,539z M67.8,553.8c-3.4,3.6-6.7,6.5-9.3,8.4c0,0.2,0,0.3-0.1,0.5 c0.2,0.1,0.4,0.2,0.6,0.4c2.1,1.3,5.4,3.7,10.8,7.6c0.4-6.5,0.7-13.3,1.1-20.4C70,551.3,69,552.5,67.8,553.8z M58,566 c-0.7,6.3-1.5,12.4-2.2,18.4c0.6,0.3,1.3,0.9,2.4,1.7c1.6,1.2,3.8,3.2,7,6c0.5,0.5,1.1,0.9,1.7,1.4c0.6-0.5,1.1-0.9,1.7-1.4 c0.2-2.9,0.3-5.9,0.5-9c0.1-2.5,0.3-5.1,0.4-7.7C63.7,571.1,60.2,568,58,566z M56.9,588.9c-0.5-0.6-1-1.1-1.3-1.6 c-0.7,5.9-1.3,11.6-2,17.2c1.1-0.9,2.5-2,4-3.2c1.9-1.5,4.1-3.2,6.4-5.2C60.6,592.9,58.4,590.6,56.9,588.9z M66.7,598.6 c-2.7,2-5.3,3.7-7.5,5c-2.4,1.5-4.4,2.6-6,3.3c-0.4,3.7-0.9,7.3-1.3,10.9c0.5,0.3,1.2,0.7,1.9,1.2c2.3,1.5,5.8,4,11.4,8.1 c0.5-0.5,1-1,1.6-1.5c0.4-7.7,0.8-16.3,1.3-25.7C67.7,599.5,67.2,599,66.7,598.6z M52.8,621.9c-0.4-0.4-0.8-0.8-1.2-1.1 c-0.9,7.4-1.7,14.5-2.5,21.4c3-2.8,7.8-7.1,13.3-12.3C57.8,626.3,54.8,623.7,52.8,621.9z M65.5,632.1c-3.4,3-6.7,5.6-9.5,7.6 c-2.9,2.2-5.4,3.9-7.2,4.9c-0.1,0.9-0.2,1.7-0.3,2.6c0.6,0.3,1.3,0.7,2.2,1.4c2.6,1.7,6.9,4.7,14.6,9.5c0.3-7.2,0.7-15.6,1.2-25.3 C66.2,632.6,65.8,632.4,65.5,632.1z M49.6,651.5c-0.6-0.5-1.1-1-1.5-1.4c-1,8.8-2.1,17.3-3,25.5c6.4-4.7,12.5-9.2,18.5-13.6 C56.4,657.2,52.1,653.8,49.6,651.5z M65,665.2c-2.3,1.6-4.4,3.2-6.3,4.5c-1.5,1.1-2.8,2-4.1,2.9c-3.1,2.3-6.3,4.7-9.5,7.2 c6.2,5.8,12.6,11.9,19.2,18.1C64,693.5,64.2,684.4,65,665.2z M44.2,683.8c-1.1,9.2-2.1,17.9-3.1,26.2c0.4,0.2,0.8,0.5,1.3,0.8 c-0.2-0.9,7.8-5.1,18.9-10.6C55.4,694.5,49.7,689.1,44.2,683.8z M50.5,718.7c-4.8-3.7-7.9-6.1-9.7-7.6c-0.7,5.8-1.4,11.5-2,16.9 c4.1-3,8.2-6,12.2-8.9C50.9,719,50.7,718.9,50.5,718.7z M66.1,730.5l-0.3-0.2c-0.3-0.2-0.6-0.5-0.9-0.7c-2-1.5-3.9-2.9-5.6-4.2 c-1.9-1.4-3.6-2.7-5.1-3.9c-5.3,3.9-10.6,7.9-16.1,11.9c-0.1,0.4-0.1,0.8-0.1,1.1c3.9,3.8,7.8,7.7,11.7,11.6c5.2-5,9.9-9.4,14-13.3 c0.8-0.7,1.5-1.4,2.2-2.1l0.1-0.1C66.2,730.6,66.2,730.6,66.1,730.5L66.1,730.5z M37.4,739.5c-0.9,7.3-1.7,14.2-2.5,20.7 c4.3-4.1,8.2-7.8,11.9-11.3C43.7,745.7,40.6,742.6,37.4,739.5z M33.8,768.6c-1.2,9.7-2.3,18.5-3.3,26.5c0.8-0.7,1.6-1.3,2.3-2 c4-3.3,7.9-6.6,11.8-9.9C40.8,778,37.2,773.2,33.8,768.6z M47.1,786.5c-3.8,3.2-7.7,6.5-11.6,9.8c-1.9,1.6-3.9,3.2-5.8,4.9 c-0.1,1.1-0.3,2.2-0.4,3.3c4.7,4.6,9.3,9.1,13.8,13.6c5.5-5.5,10.7-10.8,15.6-15.8C54.7,796.7,50.8,791.4,47.1,786.5z M28.6,809.5 c-0.2,1.6-0.4,3.1-0.6,4.6c-1.2,8.7-2.2,16-3,22.3c5.3-5.4,10.4-10.5,15.3-15.5C36.5,817.2,32.6,813.4,28.6,809.5z M43,823.6 c-5,5.1-10.1,10.4-15.6,15.9c8.2,7.8,17,16.2,26.5,25.2c1-7.2,2-14.8,3-22.6c0.1-1.5,0.2-3,0.3-4.5C52.6,833,47.9,828.4,43,823.6z M45.9,820.6c4,4,8,7.8,11.8,11.6c0.3-4.2,0.7-8.7,1.1-13.6c0.3-3.8,0.7-7.9,1-12.2C55.4,810.9,50.7,815.7,45.9,820.6z M49.8,784.2 c3.4,4.5,6.9,9.2,10.6,14.1c0.7-7.6,1.4-15.9,2.3-25C58.5,776.9,54.2,780.5,49.8,784.2z M121.3,784.5c-0.4-0.1-0.8-0.1-1.2-0.1 c-3.3-0.3-6.5-0.6-9.5-0.9c-5.9-0.5-11.1-1-15.7-1.3c-9.1-0.7-15.7-1.1-20.4-1.6c-1.7-0.2-3.1-0.3-4.3-0.5 c-1.4,13.4-2.5,25.1-3.6,35.2c-0.1,1.4-0.3,2.8-0.4,4.2c0.7,0,1.6-0.1,2.5-0.1c0.9,0,1.9,0,3.1,0h1.3c0.3,0,0.5,0,0.8,0 c1.1,0.1,2.4,0,3.5,0.4c0.5,0.2,1,0.4,1.5,0.7c0.5,0.3,0.9,0.8,1.2,1.3c0.6,1,0.9,2.2,0.9,3.7c-0.1,1.8-0.1,3.8-0.2,6 c-0.1,1.8-0.2,3.6-0.2,5.7c0,0.5-0.1,1-0.1,1.5l0,0.4l0,0.2h0v0h0v0l0.5,0l1,0c1.3,0,2.6,0.1,3.9,0.1c2.6,0.1,5.1,0.2,7.4,0.3 c2.4,0.1,4.6,0.3,6.7,0.4c1.1,0.1,2.1,0.2,3,0.3c0.5,0,1,0.1,1.4,0.1l0.4,0l0.4,0c0.4,0,0.8,0.1,1.2,0.1c0.8,0.1,1.5,0.1,2.1,0.2 c0.6,0.2,1.1,0.4,1.6,0.7c0.5,0.3,0.8,0.8,1,1.3c0.2,0.5,0.2,1,0.2,1.5c0,1.1-0.2,2.2-0.3,3.1c-0.1,0.7-0.2,1.2-0.3,1.7 c-0.5,2-1,3.1-1.6,3.1s-1.1-1.1-1.6-3.1c-0.1-0.5-0.2-1-0.4-1.6c-0.1-0.3-0.2-0.6-0.3-0.9c-0.1-0.1-0.1-0.3-0.2-0.4 c-0.1-0.1-0.2-0.2-0.4-0.2c-0.4,0.1-0.7,0.2-1,0.3l-0.2,0.1c0,0-0.1,0-0.3,0l-0.4,0c-0.5,0-0.9,0.1-1.4,0.1c-1,0.1-2,0.1-3,0.2 c-2.1,0.1-4.4,0.2-6.7,0.3c-2.4,0.1-4.9,0.2-7.4,0.2c-1.3,0-2.6,0-3.9,0c-2.2,0-4.4,0-6.6,0c-1.2,0-2.4,0-3.5,0 c0.2-3.6,0.4-7,0.6-10.3c0.1-1.9,0.2-3.6,0.4-5.3c0.1-1.6,0.3-3.2,0.4-4.6c0-0.1,0.1-0.2,0.1-0.3c0-0.1-0.1-0.1-0.1-0.1l-0.1-0.1 l0,0c0,0,0,0-0.2,0c-1.1-0.1-2.1-0.3-3-0.4c-1.5-0.2-2.8-0.4-3.9-0.6c-1.4,13-2.6,22.9-3.6,30.4c-0.1,0.9-0.2,1.8-0.4,2.6 c7.3-1.5,22.9-3.5,55.9-6.6c-0.4-8.7,2.1-34.4,3.6-64.7C121.2,786.2,121.3,785.4,121.3,784.5C121.3,784.5,121.3,784.5,121.3,784.5 L121.3,784.5C121.3,784.5,121.3,784.5,121.3,784.5z M231.5,763.5c0-0.4-0.1-0.8-0.1-1.2l0,0c0,0,0-0.1,0-0.1c0,0-0.1,0-0.1,0v0 c0,0,0,0-0.1,0l-0.6,0c-0.4,0-0.9,0-1.3,0c-1.7,0-3.3,0-4.9,0.1c-6.4,0-12,0.1-17,0.1c-2.5,0-4.8,0-7,0c-0.5,0-1.1,0-1.6,0h-1.1 c-0.4,0-0.9,0-1.3,0c-1.8-0.1-3.2-0.7-4.2-1.9c-0.6-0.8-0.9-1.7-1-2.6c-0.1-0.9,0-2,0-2.9c0.1-1.1,0.2-2.2,0.2-3.2 c0.2-2,0.3-3.7,0.5-5.2c0.3-3.1,0.6-5.3,1-7c0-0.2,0.1-0.3,0.1-0.4c-0.6-0.1-1.2-0.2-1.9-0.3c-8.8,0.3-17.2,0.6-25.2,0.8 c-8.1,0.2-15.9,0.5-23.1,0.7c-14.6,0.4-27.3,0.7-37.9,0.8c-15.2,0.2-25.8,0.2-30.5-0.2c-0.1,0.9-0.2,1.8-0.3,2.7 c-1.2,11.3-2.3,21.7-3.3,31.2c0.6-0.1,1.3-0.1,2-0.2c4.4-0.3,10.9-0.5,20.5-0.2c4.8,0.1,10.3,0.4,16.6,0.8c3.2,0.2,6.6,0.5,10.2,0.9 c0.5,0,0.9,0.1,1.4,0.1l0.7,0.1c0.4,0.1,0.9,0.1,1.4,0.2c1.8,0.2,3.5,1,4.6,2.5c1.1,1.4,1.5,3.3,1.4,5.3c-0.1,1.1-0.1,2.2-0.2,3.4 c-1,18.9-3.2,35.9-5.4,48.1c-1.3,7.2-2.7,12.7-3.8,15.9c8.6-0.8,18.3-1.7,29.3-2.7c7.9-0.7,15.5-1.3,22.9-1.9c1.3-0.1,2.7-0.2,4-0.3 c0-0.1,0-0.2,0-0.4v-3.1c0-21.9,0.4-39.1,1.2-52.5c0.8-13.4,1.9-23,2.9-29.8c1-6.8,2-10.8,2.8-13.1c0.8-2.3,1.4-2.9,2-2.8 c0.6,0.1,1.1,0.4,1.3,2.2c0.2,1.9,0.2,5.3,0,11.6c-0.3,6.3-0.8,15.6-1.2,29.2c-0.4,13.6-0.6,31.5-0.6,55.2c0,0.7,0,1.3,0,2v0 c0.6,0.2,1.3,0.4,2,0.5c0.2,0,0.4,0.1,0.6,0.1c2.1-0.1,4.2-0.3,6.2-0.4c3.8,0.1,7.5,0.2,11.1,0.3c3.5,0.1,6.8,0.2,9.9,0.4 c6.2,0.2,11.6,0.5,16.1,0.8c0.1,0,0.2,0,0.2,0c0-6.6,0-13.7,0-21c0-9.6,0.2-19.8,0.3-30.4c0.2-9.7,0.4-18.5,0.5-26.5 C231.6,767,231.6,765.2,231.5,763.5z M233.7,745c-12.8-1.9-25.2-3.7-37-5.4c0.2,1.5,0.4,3.4,0.5,6.1c0.1,1.6,0.1,3.4,0.2,5.6 c0,1.1,0,2.2,0.1,3.4v0.2c0,0.1,0,0.1,0,0.1l0,0.1l0,0.2c0,0.1,0.1,0.3,0.2,0.4c0.1,0.1,0.4,0.1,0.5,0.1l0.1,0c0.1,0,0,0,0.4,0 c0.5,0,1-0.1,1.6-0.1c2.1-0.1,4.4-0.2,6.9-0.3c4.9-0.2,10.5-0.4,16.8-0.6c1.6-0.1,3.2-0.1,4.9-0.2c0.9,0,1.9-0.1,2.8-0.1 c0.9,0,1.7,0,2.6-0.1c0.9,0,1.7,0,2.5,0.1c0.4,0,0.9,0,1.3,0.1l0.3,1.3c0.2,0.8,0.4,1.7,0.6,2.6c0.2,0.9,0.3,1.8,0.4,2.7l0.1,0.7 l0,0.4l0.1,0.8c0.2,2.1,0.2,4.2,0.1,6.2c-0.1,8-0.3,16.9-0.4,26.8c-0.2,10.6-0.4,20.8-0.7,30.4c-0.2,4.8-0.3,9.4-0.5,13.9 c-0.1,2.2-0.2,4.4-0.3,6.5c0,0.4,0,0.7-0.1,1.1c1.5,0.2,2.8,0.3,3.9,0.5c1.2,0,2.4,0.1,3.6,0.1c16.7,0.6,27.5,1.4,28.7,2.4 c0.7,0.1,1.4,0.2,1.9,0.3c-0.2-2.8-0.2-7.7-0.1-16.1c0.2-9.1,0.7-22.4,1.6-41.8c0.5-9.7,1-20.9,1.6-33.8c0.1-2.5,0.3-5.1,0.4-7.7 C263.7,749.3,248.4,747.1,233.7,745z M334.2,754.9l-0.3,0l-0.7,0c-0.5,0-1,0-1.5-0.1c-2-0.1-4-0.2-5.9-0.3 c-3.8-0.2-7.4-0.3-10.7-0.5c-6.7-0.3-12.3-0.6-16.9-0.9c-5.4-0.4-9.3-0.7-11.7-1c-0.1,1.4-0.2,2.7-0.3,4.1 c-0.8,12.1-1.6,22.8-2.2,32.2c-1.3,18.8-2.5,32.4-3.4,42.3c-0.4,4.5-0.9,9-1.4,13.5c-0.2,1.4-0.8,3.2-0.7,4.6c0.1,1.8,2.4,2.9,4,3.5 c0.4,0.1,0.7,0.3,1.1,0.4c1.8-16.8,3.6-33,5.2-48.4c9,0.3,17.8,0.6,26.3,0.9c3.7,0.1,7.4,0.3,11,0.4c1.8,0.1,3.6,0.1,5.4,0.2 l1.2,0.1l0.3,0l0.6,0c0-0.3,0-0.6,0.1-0.9c0-1.3,0.1-2.6,0.1-3.8c0.1-2.6,0.2-5.2,0.3-7.7c0.2-5,0.3-9.9,0.5-14.6 c0.2-4.7,0.3-9.2,0.5-13.6c0.1-2.2,0.2-4.3,0.2-6.4c0-0.5,0-1,0.1-1.5l0-0.6l0-0.3c0-0.4,0.1-0.9,0.1-1.3 C335.1,755,334.7,754.9,334.2,754.9z M295.4,811.5c-1.3,13.6-2.7,27.9-4.1,42.9c13-0.1,26.5-0.1,40.4-0.2 c0.5-12.7,1.1-25.6,1.6-38.8c0-1.1,0.1-2.2,0.1-3.2C321.5,812,308.8,811.8,295.4,811.5z M411.9,874.9c-19.8-0.5-39-0.9-57.6-1.3l0-4 l0-0.7v-1.1c-31.1,0.2-59.9,0.4-86.1,0.5l0,1c0,1.1,0,2.3,0,3.4c0,1.1,0,2.2,0,3.2l0,1c21.8,0.2,41.6,0.4,59,0.6 c18.2,0.2,33.9,0.5,46.7,0.7s22.8,0.5,29.5,0.8c4.4,0.2,7.5,0.4,9,0.5C412.2,878.3,412,876.7,411.9,874.9z M491.9,806.6h-1.3 c-27.7-0.1-51.9-0.2-72.9-0.3c-0.1,25.2-0.8,47.1-1.7,61.2c18,0.3,36.5,0.6,55.5,0.9c7.4,0.1,14.8,0.3,22.3,0.4 C492.8,855.2,492.1,832.9,491.9,806.6z M445.4,731.9c-16,0.1-24.2-0.2-28.3-0.6c0.4,12.6,0.6,31.6,0.7,60.4 c5.3-1.1,19.1-1.9,54.8-1.9c4.1,0,8.1,0,11.9,0.1c2.5,0,5,0.1,7.4,0.1v-0.2c0-26.3,0.2-45.2,0.5-58.8 C471.9,731.6,456.7,731.8,445.4,731.9z M491.9,798c0-0.1-0.1-0.2-0.1-0.3l-0.2,0.1l-0.1,0c-0.4,0-0.9,0-1.3,0 c-1.9,0-3.7,0.1-5.7,0.1c-3.9,0.1-7.8,0.1-11.9,0.1c-35,0-49.2-0.8-54.8-2.1v3.5c17.3-0.1,36.8-0.2,58.8-0.3c5,0,10.1,0,15.3-0.1 C491.9,798.8,491.9,798.4,491.9,798z M800.6,614.5c-1.5-11.2-3.5-27.4-5.7-47.5c-4.5-40.1-10.1-95.6-15.9-156.9 c-0.8-8.7-1.6-17.1-2.3-25c-12.8,1.2-24.8,2.3-36,3.4c-1.7-9.6-3.4-18.6-4.9-27.2c-0.7-3.7-1.3-7.3-1.9-10.8 c-0.3-1.8-0.6-3.5-0.9-5.2l-0.2-1.3l0-0.1l0,0v0l0-0.2c-10.9,0.8-20.6,1.5-29.2,2.2c-9.7,0.7-18.2,1.3-25.7,1.8 c-6.7,0.4-12.5,0.8-17.6,1.1c-5.3,0.6-11.1,1.2-17.2,1.7c-3.3,0.3-6.4,0.5-9.3,0.8c-3.6,0.3-6.9,0.5-9.9,0.8 c-0.6-1.3-1.2-2.5-1.8-3.7c-0.3-0.6-0.6-1.2-0.9-1.8c-0.5-1.2-1.1-2.3-1.5-3.3c-1-2.1-1.8-3.9-2.5-5.5c-0.9-2.1-1.6-3.8-2.2-5.3 c0.3,4.5,0.5,9.2,0.8,14c1.9,35.3,3.4,67.3,4.1,90.4c0.7,23.2,0.7,37.5-0.1,37.6c-0.9,0-2.4-14.3-4.2-37.3 c-1.8-23.1-3.9-55-5.9-90.4c-0.3-6.3-0.7-12.3-1-17.9c-4.4,0.5-8.5,1-12.4,1.5v0.1c0,0,0,0,0,0.2c0.2,1.1,0.4,2.2,0.6,3.3 c0.6,3.1,1.1,6.2,1.6,9.1c-8.3,1.6-15.8,3.1-22.7,4.4c-1.1-2.6-2.2-5.1-3.3-7.6c-0.4-0.9-0.8-1.8-1.1-2.6l-0.1-0.2v0l0,0l0-0.1 l-0.1-0.2l-0.2,0l-0.1,0h0l-0.1,0l-0.4,0.1c-1,0.2-1.9,0.4-2.8,0.6c-1.8,0.4-3.6,0.8-5.2,1.1c-1.7,0.4-3.2,0.7-4.8,1 c-0.4,0.1-0.7,0.2-1.1,0.2l-0.5,0.1l-0.1,0c-0.2,0-0.4,0.1-0.6,0.1c0,0.2,0,0.3,0,0.5v0.1c0,0.1,0,0,0,0.2c0,0.3,0,0.6,0.1,0.9 c0.1,1.2,0.1,2.3,0.2,3.3c0.1,2.1,0.2,4,0.3,5.6c0.1,3.3,0.2,5.7,0.2,7.6c-0.1,3.6-0.4,4.6-0.8,4.7c-0.1,0-0.2,0-0.3-0.1 c-0.5,0.6-2,1.5-5.7,3c-2.9,1.1-7.2,2.6-13.4,4.6c-3.1,1-6.7,2.1-10.9,3.4c-2.1,0.6-4.3,1.3-6.7,2c-1.2,0.4-2.4,0.7-3.7,1.1 c-0.3,0.1-0.5,0.2-0.8,0.2l-0.1,0.1l-0.2,0.1l0,0.2l0,0.1v0l0,0c0,0,0,0,0,0.1c0.1,1.1,0.1,2.3,0.2,3.5c0.1,2.4,0.3,4.9,0.5,7.6 c0.3,5.3,0.6,11,1,17.2c0.6,12.5,1.4,26.9,2.2,43.7c0.4,8.3,0.7,16.3,1.1,24.2c0.2,3.9,0.3,7.7,0.5,11.5c0.1,1.9,0.1,3.7,0.2,5.6 l0.1,1.4c0,0.3,0,0.2,0,0.3l0,0.1c0,0.1,0,0.1,0,0.2l0.1,0l0.1,0l0,0l0.5,0c1.4,0.1,2.8,0.2,4.2,0.3c2.7,0.3,5.4,0.6,8,1 c5.2,0.8,10.1,1.8,14.7,3c9.2,2.4,16.9,5.6,23,8.9c3,1.7,5.7,3.4,7.8,5.3c0.3,0.2,0.5,0.5,0.8,0.7c0.3,0.2,0.5,0.5,0.8,0.8 c0.5,0.6,1.1,1.2,1.3,2c0,0.4,0,0.7,0,1.1c0,0.3-0.1,0.7-0.1,1c-0.1,0.5-0.1,1-0.1,1.4c-0.3,2.5-0.6,4.2-0.8,5 c4.6-0.4,9.1-0.8,13.5-1.2c-0.2-0.3-0.5-0.5-0.7-0.8c-0.1-6.6-0.2-13.5-0.3-20.8c0-1.7-0.1-3.4-0.1-5.2c0-2.4,0-4.8-0.1-7.3 c0-7-0.1-14.1-0.1-21.4c10.4,14.8,21.5,30.7,33.1,47.1c16.1,23.1,29.1,41.9,39.6,57.1c0,0,0,0,0,0c0.4-0.6,0.7-1,1.2-1.5 c0.6-0.4,1.3-0.9,2-1.4l0.3-0.2l0.5-0.1l1-0.3c0.7-0.2,1.3-0.4,2-0.6l1-0.3l1.2-0.2c0.8-0.1,1.6-0.3,2.4-0.5 c0.8-0.1,1.6-0.3,2.5-0.4l1.3-0.2l1.1-0.2c1.8-0.3,3.7-0.5,5.6-0.7c3.8-0.4,7.8-0.7,11.9-0.9c6.6-0.2,12.4-0.2,17.5-0.1 c5.1,0.1,9.7,0.3,13.7,0.6c8,0.7,13.8,1.9,17.8,3.2c4,1.3,6.2,2.5,7.4,3.5c1.2,0.9,1.4,1.6,1.2,2.1c-0.2,0.5-0.5,1-1.7,1.1 c-1.2,0.1-3.1-0.1-6.7-0.7c-3.6-0.5-8.8-1.2-16.7-1.6c-3.9-0.2-8.5-0.2-13.9-0.2c-5.4,0-11.5,0-18.3,0.3c-3.9,0.2-7.8,0.4-11.4,0.7 c-1.8,0.1-3.6,0.3-5.4,0.5c-0.3,0-0.2,0-0.2,0l0,0l-0.1,0c-0.1,0-0.2,0-0.3,0c-0.2,0-0.5,0-0.8,0c-0.3,0-0.8,0-1.2,0.3 c-0.4,0.3-0.4,0.6-0.3,0.7c0.1,0.2,0.2,0.3,0.4,0.4c0.4,0.2,1.1,0.5,1.9,0.7l0.3,0.1c0.1,0,0.1,0,0.2,0l0.4,0.1 c0.5,0.1,0.9,0.1,1.4,0.2c0.9,0.1,1.7,0.2,2.4,0.4c2.9,0.5,4.6,0.9,4.6,1.5c0,0.6-1.6,1.2-4.5,1.7c-0.7,0.1-1.6,0.3-2.5,0.4 c-0.5,0.1-0.9,0.1-1.4,0.2l-0.4,0l-0.5,0c-0.4,0-0.8,0-1.2,0.1c-1.7,0.1-3.5,0.1-5.5,0.1c-0.5,0-1,0-1.5,0c-0.5,0-1-0.1-1.4-0.1 c-0.4-0.1-0.9-0.1-1.3-0.2c10.7,15.7,18.4,27.1,23.8,35.3c5.6,8.5,8.8,13.7,10.4,16.8c0.8,1.6,1.3,2.5,1.5,3.3 c0.2,0.7,0.2,1.1,0,1.3c-0.4,0.4-1,0.5-3.2-1.5c-2-1.9-5.4-5.8-11.2-13.3c-11.6-15.1-33.1-44.8-73.5-102.7c-0.5-0.8-1.1-1.5-1.6-2.3 c0.1,0.8,0.1,1.7,0.1,2.6c0.1,2.7,0.2,6.1,0.2,10c0,1,0,2.1,0,3.2c0,1.6,0,3.3-0.1,5c0,1.5,0,3-0.1,4.6c4.8,5.2,9.4,10.2,13.8,14.9 c9.2,10,17.2,18.7,24.4,26.5c14.2,15.5,24.4,26.8,31.7,35.1c14.6,16.5,17.5,20.8,16.9,21.4c-0.6,0.6-2.4-0.2-16.9-14.6 c-7.2-7.2-17.6-17.8-32.6-33.4c-7.5-7.8-16.1-16.9-26.1-27.3c-9.6-10.1-20.4-21.5-32.8-34.5c-20.6,1.9-44.1,4.1-71,6.7 c0.3,15.3,0.4,36.5,0.4,66c0,58.1-1.8,105.2-4.1,105.2s-4.1-47.1-4.1-105.2c0-28.9,0.2-50,0.5-65.3c-4.4,0.4-8.9,0.8-13.4,1.2 c0.1,13.7,0.2,30.7,0.2,51.5c0,61.1-1.8,110.6-4.1,110.6s-4.1-49.5-4.1-110.6c0-20.5,0.1-37.2,0.2-50.8c-14,1.3-28.9,2.6-44.5,4.1 c0,0.4,0,0.9,0,1.3c0.3,14.2,0.6,32.9,1.7,57.4c0.6,14.1,1.3,27.5,2,39.7c0.7,12.2,0.9,23.4,0.3,32.8c-0.3,4.7-0.8,8.9-1.4,12.6 c-0.3,1.8-0.6,3.6-1,5.1c-0.4,1.6-0.7,3-1.1,4.3c-0.4,1.3-0.7,2.4-1.1,3.3c-0.4,1-0.7,1.8-1,2.4c-0.6,1.3-1,1.9-1.3,1.8 c-1.2-0.3,1.4-11.5,1.1-29.7c-0.1-9.1-0.9-20-2-32.2c-1.1-12.2-2-25.7-2.7-39.9c-1-22.8-1.2-40.7-1-54.6c0-1.3,0-2.6,0-3.8 c-4,0.4-8.1,0.7-12.2,1.1c0.5,13,0.8,34.2,0.8,69.2c0,49.3-1.8,89.3-4.1,89.3c-2.3,0-4.1-40-4.1-89.3c0-34.2,0.3-55.4,0.9-68.6 c-0.7,0.1-1.4,0.1-2.1,0.2c-14.1,1.3-28,2.5-41.7,3.8c-0.8,34.5-1.5,67.3-2.2,97.4c-0.2,9-0.5,17.8-0.7,26.4h0.1 c0.1,0.1,0,0.3,0,0.5l0.1,2.1c0.1,2.3,0.1,4.6,0.2,7c0,2.9,0.1,5.8,0.1,8.6c0,5.7,0,11.2-0.1,16.7c-0.1,2.7-0.2,5.4-0.4,8.2 c-0.1,0.9-0.2,4-1,5.9c-0.1,0.2-0.2,0.4-0.3,0.5c0,1.3-0.1,2.6-0.1,3.9l0,0.6l0,0.3l0,0.7c12.4-0.2,23.9-0.4,34.3-0.5 c0.8-18,1.9-21.2,3.2-21.2c1.4,0,2.6,1.2,3.4,21.7c3.3-0.6,10-1.3,22.9-2.2c11.7-0.8,28.5-1.6,52.6-2.7c0.7-22.5,2-26.3,3.4-26.3 c1.5,0,2.7,1.4,3.5,26.1c12.6-0.5,27.1-1.1,43.7-1.8c8.5-0.3,17.5-0.6,27.2-1c9.7-0.4,20-0.7,30.9-1.1c-0.5-11.6-1.1-23-1.6-34 c-0.5-12.3-1-24.2-1.5-35.5c-0.9-22.6-1.6-43-2.1-60.1c-1-34.2-1-55.4,0.1-55.4c1.1,0,3.2,21.1,5.6,55.1c1.2,17.1,2.5,37.4,3.9,60 c0.6,11.3,1.3,23.2,2,35.5c0,0.3,0,0.6,0,0.9c0-0.6,0-1.3,0-1.9c1.2-0.5,2.5-0.9,3.7-1.3c6.3-2.3,13.2-4.7,20.4-7.3 c14.3-5.1,30.3-10.7,47.6-16.8c17.4-6,36.1-12.5,55.8-19.3c9.9-3.4,20-6.8,30.3-10.4c2.6-0.9,5.2-1.8,7.8-2.6l2-0.7l1-0.3 c0.4-0.1,0.9-0.4,1.6-0.3l1,0c0.3,0,0.7,0,0.9,0l1.1,0.2l2.1,0.3c5.5,0.9,11,1.8,16.6,2.8c1.1,0.2,2.2,0.4,3.3,0.6 C802.3,625.9,801.5,621.1,800.6,614.5z M570.6,498c-1.2,0-2.1-5.7-4-14.9c-0.9-4.6-2-10-3.2-16.1c-1.1-6.1-2.3-13-3-20.3 c-0.5-5.9-0.6-11.2-0.7-15.8c0-4.6,0-8.6-0.1-12.1c0-1.7,0-3.3-0.1-4.8c0-0.7,0-1.5,0-2.1l0-0.5c0-0.1,0-0.1,0-0.1l0-0.2 c0-0.1,0.1-0.3,0.1-0.4c0-0.2-0.1-0.2-0.2-0.3c-0.1,0-0.2-0.1-0.3-0.1l-0.2-0.1c-0.1,0-0.1,0-0.4,0c-3.4,0.1-5.5,0.2-6.8,0 c-1.3-0.2-1.8-0.6-2-1.1c-0.2-0.5-0.2-1.1,0.6-1.8c0.8-0.7,2.5-1.7,6-2.6c0.4-0.1,0.9-0.2,1.4-0.3l0.4-0.1c0.2,0,0.4-0.1,0.6-0.1 c0.4-0.1,0.9-0.1,1.3-0.2c0.9-0.1,1.9-0.1,2.8,0.1c0.8,0.2,1.8,0.8,2.3,1.6c0.6,0.7,0.7,2,0.9,3.2c0.1,0.6,0.2,1.3,0.3,1.9 c0,0.4,0.1,0.8,0.1,1.2c0.2,1.6,0.3,3.2,0.5,5.1c0.3,3.7,0.4,7.9,0.6,12.7c0.2,4.8,0.3,10.3,0.8,16.3c0.6,7,1.5,13.7,2.3,19.9 c0.8,6.2,1.3,11.8,1.5,16.6C572.8,492.1,571.7,498,570.6,498z M693.9,509.1c-2.2,0.2-7.3-29.2-11.2-65.7c-0.8-7.4-1.5-13.9-2-19.8 c-0.5-5.9-0.9-11.1-0.9-15.8c0-4.7,0.3-8.5,0.2-11.5c0-0.2,0-0.4,0-0.6c0-0.1,0-0.1,0-0.1l0-0.2c0-0.2,0-0.4-0.1-0.5 c-0.1-0.1-0.3-0.1-0.4-0.2c-0.1,0-0.2,0-0.3-0.1c-0.3,0-0.5,0-0.8,0c-2-0.1-3.6,0.2-4.9,0.4c-1.3,0.2-2.3,0.4-3.1,0.6 c-1.5,0.3-2.2,0.1-2.5-0.3c-0.3-0.5-0.5-1,0.4-2.1c0.4-0.5,1.2-1.2,2.4-2c1.2-0.7,2.9-1.6,5.3-2.1c0.6-0.1,1.2-0.2,1.9-0.3 c0.4-0.1,0.7-0.1,1.1-0.1c0.5,0,1.1,0,1.7,0c0.6,0.1,1.2,0,1.8,0.2c0.6,0.1,1.1,0.3,1.7,0.6c1.1,0.7,1.9,1.7,2.2,3.1 c0.2,0.7,0.3,1.5,0.4,2.2c0.1,0.5,0.1,1,0.2,1.6c0.1,1,0.2,1.9,0.2,3c0.1,2,0.1,4.2,0.2,6.4c0.1,4.5,0.6,9.7,1.2,15.8 c0.7,6.2,1.5,13.1,2.3,21.1C694.8,479,696.2,508.8,693.9,509.1z M577.3,518.9c0-0.5-0.1-0.9-0.1-1.4c-0.1-0.5-0.1-0.7-0.1-1.1 c-0.1-0.3-0.5-0.5-0.8-0.8c-0.2-0.1-0.4-0.3-0.6-0.4c-0.2-0.2-0.5-0.3-0.7-0.5c-2-1.4-4.6-2.7-7.6-4c-6-2.5-13.6-5-22.4-6.8 c-4.4-0.9-9.1-1.7-14.1-2.2c-2.5-0.3-5.1-0.5-7.7-0.7c-0.5,0-0.9,0-1.4-0.1c0.7,3.6,1.3,11.4,1.7,27.9c19.9-1.8,38.1-3.3,54.7-4.8 C577.9,523.2,577.6,521.5,577.3,518.9z M604.3,500.1c-1.1-1.6-2.1-3.1-3.2-4.6c-0.5-0.8-1.1-1.5-1.6-2.3l-0.2-0.3l-0.1-0.1l0,0l0,0 c0-0.1-0.1-0.3-0.2-0.5c0,0.1-0.1,0.2-0.1,0.5l0,0.1v0.1l0,0v0.5c0,0.9,0,1.8,0,2.6c0,1.8-0.1,3.5-0.1,5.2c-0.1,3.4-0.1,6.8-0.2,10 c0,1.6-0.1,3.2-0.1,4.8c0,0.8,0,1.6,0,2.4l0,0.6v0.2l0,0.1l0,0.2c3.1,3.9,6.1,7.6,8.9,11c0.4,0.5,0.8,0.9,1.1,1.4l0.6,0.7l0.2,0.2 l0.1,0.1c0.2,0.3,0.5,0.6,0.7,0.9c0.5,0.8,1.1,1.5,1.6,2.2c0.1-0.9,0.2-1.7,0.4-2.4c0.1-0.5,0.1-1,0.2-1.4c0.1-1,0.2-2,0.2-2.9 c0.3-3.9,0.7-7.2,1-9.9c0.3-2.2,0.5-3.9,0.7-5.3C610.7,509.3,607.4,504.6,604.3,500.1z M648.9,806.8h-24.7c-10.4,0-20.4,0-30.2,0 c-35.1-0.1-66.2-0.1-94-0.2c-0.2,26.3-0.9,48.7-1.9,62.2c31.9,0.6,64.8,1.2,98.6,1.9c18.2,0.4,35.7,0.7,52.2,1 C648.9,848.9,648.9,827.3,648.9,806.8C648.9,806.8,648.9,806.8,648.9,806.8z M682.6,816.1c-0.3-17.7-0.5-33.2-0.7-46.7 c-0.1-11.3-0.2-21.2-0.3-29.9c-0.6,0.6-1.6,1.2-2.8,1.3c-0.6-0.1-1.2-0.2-2-0.5c-0.2-0.1-0.3-0.1-0.5-0.2L676,740 c-0.3-0.1-0.5-0.2-0.8-0.3c-1.1-0.4-2.2-0.8-3.5-1.3c-2.5-1-5.3-2.1-8.3-3.5c-6.1-2.7-13.2-6.2-20.8-10.1 c-17.1-8.8-26.6-14-31.7-17.1c-0.8-0.5-1.5-1-2.2-1.4c0.4,6.9,0.7,13.9,1.1,21c-0.9,0-1.9,0.1-2.8,0.1c-22.2,0.8-42,1.4-59.7,2 c-16.8,0.5-31.5,0.9-44.5,1.3c-1.1,0-2.2,0.1-3.3,0.1c0.3,13.5,0.5,32.5,0.5,59c0,3.1,0,6.2,0,9.3c25.1-0.1,53.1-0.2,84.4-0.3 c21.3-0.1,44-0.1,68.2-0.2l2.2,0h1.6c0.2,0,0.5-0.1,0.5,0.1v10.7c0,3,0,6,0,9.1c0,6.1,0,12.3,0,18.6c0,12.1,0,24.5,0,37.3 c6.6-0.3,15.3-0.5,26.7-0.6C683.3,852.4,683,833.3,682.6,816.1z M881.6,797.8c0,2.1-0.1,4.1-0.1,6.2c-0.1,4-0.2,7.9-0.3,11.5 c-0.2,7.3-0.5,13.7-0.9,19c-0.7,10.7-1.6,17.1-2.5,17.1s-1.8-6.4-2.5-17.1c-0.3-5.3-0.6-11.8-0.9-19c-0.1-3.6-0.2-7.5-0.3-11.5 c0-2-0.1-4.1-0.1-6.2c0-1.1,0-2.1-0.1-3.2l0-0.8c0-0.1,0-0.1,0-0.1l0-0.1l-0.1,0h0c0,0,0,0,0,0c0,0,0,0,0,0l-0.3-0.2 c-0.8-0.5-1.6-0.9-2.4-1.4c-1.6-0.9-3.3-1.9-5-2.8c-1.7-0.9-3.3-1.9-5-2.9c-0.6-0.4-1.3-0.7-1.9-1.1v0l0,0c0,0,0,0,0,0 c0,1.9,0,3.7,0,5.5c0,4,0,7.7-0.1,11.2c-0.1,7-0.1,13.2-0.3,18.6c-0.2,10.8-0.5,18.5-0.9,24.1c-0.2,3.2-0.5,5.7-0.7,7.6 c19.6,0.6,33.5,1.5,38,2.6c-0.5-5.8-1-11.6-1.5-17.2c-1.1-12.9-2.1-25.3-3-37.1c-1.9-23.6-3.4-44.9-4.6-62.7 c-1.2-17.8-2-32.2-2.4-42.2c-0.4-9.2-0.4-14.5,0.1-15.4c-2.3,1.7-44.5-5.6-95.8-16.6c-1.3-0.3-2.6-0.6-3.9-0.8 c-9.4,3-17.7,5.8-25.1,8.2c-7.7,2.5-14.5,4.6-20.5,6.5c-11.9,3.7-20.5,6.2-26.7,7.9c-8.3,2.2-12.3,2.9-14.1,2.8 c0.1,1.3,0.2,2.7,0.3,4.1c0.7,10,1.5,24.6,2.3,42.6c0.4,8.3,0.8,17.4,1.1,27.1c4.9-0.9,12.8-1.5,22.2-1.8c-0.3-3.3-0.6-6.7-0.8-10.4 c-0.4-4.3-0.7-9-1.2-13.9c-0.1-1.2-0.3-2.5-0.4-3.8c-0.1-0.6-0.1-1.3-0.2-1.9c-0.1-0.8-0.1-1-0.2-1.6c-0.2-1.2-0.6-2.6-0.8-4.2 c-0.1-0.4-0.1-0.8-0.1-1.3c0-0.2,0-0.5,0-0.7c0-0.2,0-0.7,0-1c0.1-1.4,0.5-2.7,1.2-3.9c0.4-0.5,0.8-1,1.3-1.4c0.5-0.4,1-0.8,1.6-1.1 c0.3-0.2,0.6-0.3,0.7-0.4c0.2-0.1,0.4-0.2,0.6-0.3c0.4-0.2,0.8-0.3,1.2-0.4c1.5-0.5,2.9-0.9,4.2-1.3l0.9-0.3l0.4-0.1l0.4-0.1 c0.7-0.2,1.3-0.5,2-0.7c1.3-0.5,2.7-1,4.1-1.5c5.6-2,11.5-4.2,17.7-6.4c6.3-2.3,12.4-4.5,18.4-6.7c6.4-2.3,12.7-4.5,18.7-6.7 c6.8,1.7,13.4,3.4,19.7,5c5.9,1.6,11.6,3,16.9,4.5c10.7,2.9,20.1,5.5,27.9,7.7c15.6,4.5,24.7,7.6,24.5,8.5 c-0.2,0.6-4.6,0.1-12.4-1.2c0.5,0.9,1,2.2,1.6,4.2c0.9,2.9,2,7.2,3.3,13.6c1.3,6.4,2.9,14.9,4.5,26.1c0.9,6.5,1.5,12.7,1.8,18.3 c0.2,4.4,0.3,8.4,0.2,12c0.3,0.2,0.6,0.4,0.9,0.5c0,1.9,0,3.7,0,5.5C881.7,795.7,881.6,796.8,881.6,797.8z M812.5,752.8 c-0.3-6.5-0.8-12.2-1.3-17.2c-1-10.1-1.5-17.4-1.5-22.7c0-5.3,0.3-8.5,0.8-10.3c0.1-0.2,0.1-0.4,0.2-0.6c-5.5-1.3-11.3-2.6-17.2-3.9 c-5.3,2-10.8,4-16.4,6.1c-6,2.2-12.1,4.5-18.4,6.7c-6.2,2.2-12,4.4-17.6,6.4c-1.4,0.5-2.8,1-4.1,1.5c-0.7,0.2-1.3,0.5-2,0.7 c-0.3,0.1-0.8,0.3-1.2,0.4l-1.1,0.3c-1.4,0.4-2.6,0.7-3.7,1.1c-0.3,0.1-0.5,0.2-0.7,0.3c-0.1,0-0.2,0.1-0.3,0.1l-0.2,0.1 c0,0,0,0,0,0c0,0.1-0.1-0.4,0,0.9c0.1,1,0.3,2.1,0.6,3.3c0.1,0.6,0.2,1.2,0.4,2.1c0.1,0.6,0.1,1.2,0.2,1.9c0.1,1.2,0.2,2.4,0.3,3.5 c0.2,2.3,0.4,4.6,0.6,6.8c0.1,2.2,0.3,4.3,0.4,6.4c0.2,4.1,0.5,8,0.7,11.7c0,0.4,0,0.8,0.1,1.2c1.5,0,3.1,0,4.7,0 c25,0,34.5,0.9,37.9,2.2c0.1-0.4,0.3-0.8,0.5-1.2c-0.1-1.3-0.2-2.6-0.3-3.9c-0.1-1.1-0.2-2.3-0.3-3.4c-0.1-1.6-0.2-3.1-0.3-4.6 c-0.1-1.5-0.2-3-0.3-4.4c-0.2-2.6-0.4-5.2-0.6-7.7c2.3-0.1,4.5-0.2,6.7-0.3c1.3-0.1,1.6-0.1,2.2-0.1c0.6,0,1.1,0,1.7,0 c2.3,0,4.4-0.1,6.4-0.1c4,0,7.5,0,10.4,0.1c5.8,0.2,9.1,0.6,9.1,1.3c0,0.7-3.2,1.6-8.9,2.6c-2.8,0.5-6.3,1-10.3,1.5 c-2,0.2-4.1,0.5-6.4,0.8c-0.6,0.1-1.1,0.1-1.7,0.2c-0.5,0.1-1.2,0.1-1.3,0.2c-0.2,0.1-0.4,0.1-0.6,0.2c0.1,0.2,0.1,0.5,0.2,0.7 c0.2,1.4,0.4,2.9,0.6,4.4c0.2,1.5,0.4,3,0.6,4.6l0.1,1.2c0,0.1,0,0.1,0,0.1s0,0.1,0.1,0.1l0.2,0c0,0,0,0,0.1,0l0.7,0l1.5,0.1 c0.5,0,1,0,1.5,0.1c2.6-0.4,5.2-0.4,7.6-0.4c2.5,0,5.1,0,7.8,0c4.2,0,8.3,0,12.3,0.1C812.6,753.5,812.6,753.1,812.5,752.8z M772.7,778.1c0-1.8,0-3.7-0.1-5.6v-3c0-1,0-2,0-3.2c0-0.1,0-0.2,0-0.3c-3.8,1.1-13.4,1.8-37.2,1.8c-1.5,0-2.9,0-4.3,0 c0,0.3,0,0.6,0,0.8c0.1,3.5,0.1,6.8,0.1,9.8c3.8-0.1,8-0.1,12.8-0.1c11.1,0,21.2,0.4,28.6,1.1C772.7,779.1,772.7,778.6,772.7,778.1z M772.9,788.2c0-0.9-0.1-1.8-0.1-2.7c-7.4,0.7-17.6,1.2-28.7,1.2c-4.8,0-9.1,0-12.9-0.1c-0.1,3.9-0.2,7.3-0.4,10.1 c3.1-0.1,6.6-0.1,10.5-0.1c14.1,0,26.2,0.9,32.1,2.3C773.2,795.7,773.1,792.1,772.9,788.2z M773.6,802.5c-5.8,1.4-18.1,2.3-32.3,2.3 c-4.2,0-7.8,0-11.1-0.1c-0.4,4-0.9,6.2-1.3,7.4c4-0.2,8.4-0.3,13-0.3c20.2,0,28.9,0.8,32.7,1.9C774.3,810.7,773.9,807,773.6,802.5z M873.1,777.3c-0.8-5.5-1.6-11.5-2.4-17.9c-1.5-10.3-2.6-18.3-3.6-24.6c-0.9-6.3-1.4-10.8-1.6-14.1c-0.2-3.9,0-6,0.4-7 c-2.9-0.5-6.1-1.2-9.7-1.9c-8-1.6-17.5-3.6-28.3-6c-4.4-1-9.1-2-13.9-3.1c0.4,1.5,0.8,3.9,1.4,7.7c0.7,4.8,1.7,11.8,3.2,22 c0.7,5.2,1.5,11.2,2,18.4c0.1,0.9,0.1,1.8,0.2,2.7c0,0.1,0,0.2,0,0.2c0.6,0,1.3,0,2,0c1.4,0,2.8,0.2,4,0.8c1.2,0.6,2.1,1.6,2.7,2.8 c0.3,0.6,0.5,1.2,0.7,1.9l0.3,1.3c0.2,0.7,0.3,1.5,0.5,2.2c0.3,1.4,0.5,2.9,0.7,4.2c0.4,2.8,0.6,5.4,0.8,7.9s0.4,5,0.6,7.3 c0.3,4.7,0.6,9.1,0.9,13.2c0.9,16.1,0.9,26.1-0.2,26.2c-1.1,0.1-3.2-9.7-5.6-25.6c-0.6-4-1.2-8.3-1.9-13c-0.7-4.7-1.2-9.8-2-14.8 c-0.2-1.2-0.5-2.5-0.8-3.7c-0.1-0.6-0.3-1.2-0.5-1.8l-0.1-0.5l-0.1-0.2c0-0.1,0-0.1,0-0.1l0,0c0-0.1-0.1-0.1-0.2,0c-0.5,0-1,0-1.5,0 c0,0.5,0,1,0,1.5l0,0.7c-0.2,0.1-0.5,0-0.7,0l-1.4-0.1c-1-0.1-2-0.1-2.9-0.1c-4.6-0.2-9.4-0.5-14.6-0.7c-4.2-0.2-8.3-0.5-12.3-0.7 c-1-0.1-1.9-0.1-2.9-0.2c-0.7,0.1-1.4,0.2-2,0.4c-0.8,0.2-1.5,0.5-2,0.7c-0.5,0.3-0.6,0.5-0.8,0.7c-0.1,0.2-0.3,0.6-0.4,1.3 c-0.1,0.6-0.2,1.4-0.2,2.3c0,0.9,0,1.9-0.1,2.8c0,1.8-0.1,3.6-0.1,5.3c0,1.7,0,3.3,0,4.9c3.2,0.6,5.1,1.3,5.1,2c0,0.7-1.9,1.4-5.1,2 c0,0.3,0,0.6,0,0.8c-0.1,12,0,20.6-0.1,26.8c-0.1,12.3-0.9,14.8-2,14.9c-1,0.1-2-0.5-3.2-8.8c-3.2,1.1-11.6,1.9-33.2,1.9 c-19.5,0-35.3-1.8-35.3-4.1c0-1.6,8.2-3,20.2-3.7c-0.4-1.1-0.8-3.2-1.1-7.6c-17.8-0.5-20.3-2.1-20.3-3.9c0-1.9,0.9-3.4,19.9-3.9 c-0.1-2.9-0.3-6.3-0.4-10.4c-19.4-0.6-22.2-2.1-22.2-3.9c0-1.8,1-3.4,21.9-3.9c-0.1-2.1-0.2-4.2-0.4-6.6c-0.1-1.4-0.2-2.9-0.3-4.4 c-9.6-0.3-17.6-1-22.6-1.8c0.4,10.1,0.8,20.8,1.1,32.1c0.4,11.9,0.8,24.5,1.2,37.5c0,0.8,0,1.6,0.1,2.3c5-1.4,21.3-2.3,74.1-2.3 c35.5,0,65.4,1.3,73.8,3.1c-0.2-4.2-0.3-9.3-0.4-15.6c-0.1-5.5-0.2-12-0.2-19.4c0-3.7,0-7.7-0.1-11.9c0-6.5,0-13.4,0-20.7 c1.8,1,3.9,2.2,6,3.5c4.5,2.6,9,5.2,13.3,7.8c1.3,0.8,2.6,1.5,3.9,2.3C873.7,782.3,873.4,779.8,873.1,777.3z M852,846.8 c-0.1-1.8-0.2-3.8-0.4-6.2c-8.4,1.8-38.3,3.1-73.9,3.1c-51.3,0-68.6-1-74-2.5c0.1,4.3,0.2,8.6,0.4,13c3.9-1.6,21-2.8,95.7-2.8 c19.5,0,37.6,0.2,52.7,0.7C852.3,850.6,852.2,848.9,852,846.8z M895.1,856.2c-7.8,1.9-47.5,3.4-95.4,3.4c-71.9,0-91.2-1.3-95.6-3 c0.1,5.6,0.3,11.2,0.4,16.9c18.2-0.2,41.2-0.2,70.3-0.2c52.6,0,98.4,0.9,121.9,2.2C896.2,868.9,895.7,862.5,895.1,856.2z M973.1,684.3L973.1,684.3l0-0.3l0-0.9c0-0.6,0-1.2,0-1.8c0-2.4-0.1-5-0.1-7.6c0-1.3,0-2.7,0-4.1l0-1.1v-0.4l0-0.1l0-0.3 c0-0.1-0.2-0.1-0.2-0.1l-0.2,0c-0.1,0,0.1,0-0.5-0.1c-1.5-0.3-3-0.5-4.5-0.8c-12.3-2.2-26.4-4.7-42.8-7.6 c-32.7-5.9-74.1-13.3-126.5-22.7c-5.5-1-11.1-1.9-16.5-2.8c-1-0.2-2-0.3-3-0.5c-1.1,0.4-2.2,0.7-3.3,1.1c-2.6,0.9-5.2,1.7-7.8,2.6 c-10.3,3.5-20.4,6.9-30.3,10.1c-19.7,6.5-38.4,12.8-55.8,18.5c-17.4,5.7-33.5,11-47.9,15.6c-7.1,2.3-13.8,4.4-20,6.4 c-0.3,0.1-0.6,0.2-0.9,0.3c0,0.3,0,0.6-0.1,0.9c0,1.5-0.1,3-0.1,4.4c0,1.5-0.1,3-0.1,4.4c0,0.7-0.1,1.4-0.1,2c0.5,0,1.1,0,1.6,0 l0.4,0l0.8,0c0.5,0,1.1-0.1,1.6-0.1c2.2-0.1,4.2-0.2,6.2-0.3c2-0.1,3.8-0.2,5.6-0.2c0.3,0,0.7,0,1,0c0.3,0,0.5,0,0.8,0 c0.6,0,1.1,0,1.6,0c-0.1-0.8-0.1-1.6-0.2-2.3c0-0.2,0-0.4,0-0.6c0-0.3-0.1-0.5-0.1-0.8c-0.1-0.5-0.1-1-0.1-1.5 c-0.2-1.9-0.3-3.5-0.4-4.8c-0.2-2.6-0.1-4,0.1-4c0.2,0,0.7,1.3,1.3,3.8c0.3,1.3,0.7,2.9,1.1,4.7c0.1,0.5,0.2,1,0.3,1.5 c0.1,0.6,0.2,1.2,0.4,1.8c0.3,1.5,0.6,3,0.9,4.7c-3.5,0.4-7.5,0.8-12,1.3c-1.9,0.2-4,0.4-6.2,0.7c-0.3,0-0.7,0.1-1,0.1 c6,2.3,15.4,6.6,30.2,14.2c7.6,3.9,14.5,7.8,20.2,11.2c2.9,1.7,5.4,3.3,7.7,4.8c1.1,0.7,2.1,1.4,3,2.1c0.2,0.2,0.4,0.3,0.7,0.5 l0.3,0.2c0.1,0.1,0.1,0.1,0.2,0.2c0.2,0.2,0.4,0.4,0.6,0.6c0.8,0.3,1.6,0.1,2.3-0.1c0.1,0,0.2-0.1,0.4-0.1 c-0.1-11.1-0.1-20.3,0-27.8c-4.4,0.6-10.7,1.2-17.7,1.5c-21.8,1.1-24.5,0.3-24.5-0.8c0-1.1,0.8-2.1,24.3-3.3 c7.1-0.4,13.4-0.4,17.9-0.2c0.2-25.5,1.1-30.6,2.2-30.7c1.1,0,2.2,1.8,3.4,27.7c0.6,13,1.3,32,2.1,59.8c0.4,13.9,0.8,30,1.2,48.7 c0.4,17.5,0.8,37.4,1.3,60c0.6,0,1.3,0,1.9,0l2.6,0c-0.3-12.4-0.5-24.5-0.8-36.1c-0.2-13-0.5-25.6-0.7-37.5 c-0.4-23.9-0.6-45.4-0.6-63.4c-0.1-18,0-32.6,0.3-42.6c0.2-10.1,0.6-15.6,1.2-15.6c0.4,0,0.9,3.1,1.4,8.8c1.4-1,4.3-2.4,10.1-4.8 c5.6-2.2,13.8-5.2,25.9-9.5c6-2.1,13.1-4.5,21.2-7.3c8.4-2.8,18.1-6,29-9.7c1.8,0.4,3.9,0.8,6.1,1.3c52.5,11.3,94.7,22.3,94.2,24.5 c0.5,0,1.6,5.4,2.9,15.3c1.3,9.9,3.1,24.2,5,42c1.9,17.8,4.1,39,6.4,62.6c1.1,11.8,2.3,24.2,3.5,37.1c1.1,11.7,2.2,23.8,3.3,36.2 c0,0,0.1,0,0.1,0h4.7c-1.9-20.5-3.6-38.8-5.1-55.1c-1.6-17.6-2.9-33-4.1-46.6c-2.3-27-3.9-46.5-4.8-60.3 c-1.9-27.7-1.4-33.3-0.2-33.4c0.3,0,0.6,0.1,0.9,0.7c0.8-0.1,2.2,0,4.5,0.2c2.6,0.3,64.8,6.7,67.4,6.7c1.3,0,2.6,0,3.9-0.1 c0.3,0,0.7,0,1-0.1C973.2,684.8,973.1,684.6,973.1,684.3z M170.6,676.6c-0.4-0.9,9.1-5.8,21.9-12.2c-0.1-0.9-0.1-2-0.1-3.5 c-9.2-6.8-19-13.6-19.5-14c-0.8,6.5-5.9,34.7-5.5,36c1.2,0.5,22-2,22-2c0,1.4,2.1-4.2,2.1-12.4C181.3,673,170.9,677.3,170.6,676.6z M228.5,343.2c0.7-0.8,1.7-1.6,2.9-2.6c0.6-0.5,1.2-1.1,1.8-1.8c0.6-0.7,1.2-1.6,1.7-2.4c0.9-1.6,1.6-3.2,2.5-4.2 c0.8-0.9,1.9-1.6,3.4-2.2c1.5-0.6,3.4-1,5.5-1.5c0.6-0.1,1-0.3,1.7-0.5c0.7-0.2,1.5-0.5,2.5-1.3c0.5-0.4,1-1.1,1.2-1.9 c0.3-0.8,0.3-1.7,0.1-2.4c-0.4-1.4-1-2.1-1.7-2.8c-1.4-1.2-3-1.6-4.4-1.7c-0.7,0-1.5,0.1-1.9,0.2c0,0,0,0,0,0c0,0-0.1,0.1-0.1,0.1 c0,0,0,0,0-0.1c-0.1-0.1-0.1-0.2-0.2-0.3l-0.3-0.4c-0.2-0.3-0.4-0.5-0.6-0.8c-0.4-0.5-0.9-0.9-1.5-1.2c-1.1-0.7-2.6-1-3.8-0.9 c-1.6,0.2-2.7,0.9-3.6,1.6c-0.8,0.7-1.4,1.4-1.9,2c-0.9,1.2-1.5,2.2-2.1,3.2c-1.1,2-1.4,3.7-1.3,4.9c0.1,1.2,0.4,1.8,0.7,2.1 c0.3,0.3,0.6,0.3,0.9,0.2c0.7-0.1,1-0.7,1.7-2.1c0.4-0.7,1-1.7,2.1-3c0.5-0.6,1.3-1.5,2-2.2c0.7-0.7,1.6-1.2,1.8-1.1 c0.1,0,0.1,0,0.2,0.1c0.1,0,0.1,0.1,0.2,0.2c0,0.1,0.1,0.1,0.1,0.2c0,0,0,0.1,0,0.1l0.1,0.2c0.4,0.4,0.8,0.9,1.3,1.3 c0.2,0.2,0.5,0.5,0.7,0.8c0.1,0.1,0.1,0.1,0.1,0.2l0.3,0.3c-0.8,0.2-1.5,0.5-2.3,0.8c-2.1,0.8-4.4,2.3-5.9,4.3c-1.4,2-2,3.8-2.6,5.2 c-0.3,0.7-0.6,1.2-0.9,1.8c-0.4,0.5-0.8,1.1-1.3,1.6c-0.9,1.1-2,2.3-2.7,3.6c-0.8,1.3-1.2,2.5-1.5,3.6c-0.6,2.3-0.4,4-0.2,4.9 l0.3,0.9l0.4-0.2c0.6-0.2,0.9-0.5,0.9-0.7c0-0.1,0-0.1-0.1-0.2c0.4-0.8,0.8-2.1,1.7-3.5C227.1,344.9,227.7,344,228.5,343.2z M247.6,323.5L247.6,323.5L247.6,323.5L247.6,323.5C247.6,323.5,247.6,323.5,247.6,323.5L247.6,323.5z M89.7,415.6 c0.7-0.8,1.7-1.6,2.9-2.6c0.6-0.5,1.2-1.1,1.8-1.8c0.6-0.7,1.2-1.6,1.7-2.4c0.9-1.6,1.6-3.2,2.5-4.2c0.8-0.9,1.9-1.6,3.4-2.2 c1.5-0.6,3.4-1,5.5-1.5c0.6-0.1,1-0.3,1.7-0.5c0.7-0.2,1.5-0.5,2.5-1.3c0.5-0.4,1-1.1,1.2-1.9c0.3-0.8,0.3-1.7,0.1-2.4 c-0.4-1.4-1-2.1-1.7-2.8c-1.4-1.2-3-1.6-4.4-1.7c-0.7,0-1.5,0.1-1.9,0.2c0,0,0,0,0,0c0,0-0.1,0.1-0.1,0.1c0,0,0,0,0-0.1 c-0.1-0.1-0.1-0.2-0.2-0.3l-0.3-0.4c-0.2-0.3-0.4-0.5-0.6-0.8c-0.4-0.5-0.9-0.9-1.5-1.2c-1.1-0.7-2.6-1-3.8-0.9 c-1.6,0.2-2.7,0.9-3.6,1.6c-0.8,0.7-1.4,1.4-1.9,2c-0.9,1.2-1.5,2.2-2.1,3.2c-1.1,2-1.4,3.7-1.3,4.9c0.1,1.2,0.4,1.8,0.7,2.1 c0.3,0.3,0.6,0.3,0.9,0.2c0.7-0.1,1-0.7,1.7-2.1c0.4-0.7,1-1.7,2.1-3c0.5-0.6,1.3-1.5,2-2.2c0.7-0.7,1.6-1.2,1.8-1.1 c0.1,0,0.1,0,0.2,0.1c0.1,0,0.1,0.1,0.2,0.2c0,0.1,0.1,0.1,0.1,0.2c0,0,0,0.1,0,0.1l0.1,0.2c0.4,0.4,0.8,0.9,1.3,1.3 c0.2,0.2,0.5,0.5,0.7,0.8c0.1,0.1,0.1,0.1,0.1,0.2l0.3,0.3c-0.8,0.2-1.5,0.5-2.3,0.8c-2.1,0.8-4.4,2.3-5.9,4.3c-1.4,2-2,3.8-2.6,5.2 c-0.3,0.7-0.6,1.2-0.9,1.8c-0.4,0.5-0.8,1.1-1.3,1.6c-0.9,1.1-2,2.3-2.7,3.6c-0.8,1.3-1.2,2.5-1.5,3.6c-0.6,2.3-0.4,4-0.2,4.9 l0.3,0.9l0.4-0.2c0.6-0.2,0.9-0.5,0.9-0.7c0-0.1,0-0.1-0.1-0.2c0.4-0.8,0.8-2.1,1.7-3.5C88.3,417.2,88.9,416.4,89.7,415.6z M108.8,395.8L108.8,395.8C108.8,395.8,108.8,395.8,108.8,395.8L108.8,395.8z M146.7,376.1c0.1-0.3,0.1-0.6,0.2-1 c0.1-0.8,0.2-1.6,0.2-2.4c0-0.9,0-1.8-0.5-3c-0.2-0.6-0.5-1.2-1-1.7c-0.1-0.1-0.3-0.3-0.4-0.4c-0.2-0.1-0.3-0.3-0.5-0.4 c-0.4-0.2-0.7-0.4-1.1-0.5c-0.1,0-0.2,0-0.3-0.1c0-1.1,0-2.2-0.1-3.4c-0.1-1.2-0.2-2.4-0.5-3.6c-0.2-1.3-0.6-2.6-1.1-3.9 c-0.6-1.3-1.3-2.7-2.5-4c-1.2-1.2-2.9-2.2-4.5-2.6c-1.6-0.5-3.1-0.6-4.6-0.7c-1.5-0.1-3.1-0.2-4.7-0.1c-2.5,0.1-4.9,0.3-7.2,0.8 c-2.3,0.5-4.7,1.1-7,2.4c-2.3,1.3-4.1,3.1-5.4,5c-0.3,0.5-0.7,0.9-1,1.4c-0.3,0.4-0.7,1.1-0.6,1c0,0.1-0.1,0.2-0.1,0.2 c0,0-0.1-0.1-0.1-0.1l-0.2-0.1l-0.1-0.1l-0.3-0.2c-0.3-0.2-0.7-0.4-1-0.5c-1.4-0.6-2.9-0.9-4.3-1c-2.9-0.1-5.3,0.7-7.4,1.6 c-2.1,1-3.8,2-5.4,3.1c-1.6,1.1-3.2,2.4-4.1,4c-0.9,1.6-1.3,3.4-0.9,4.8c0.5,2.2,2.4,4.5,3.8,6.3c1.5,2,3.4,3.9,5.9,4.8 c0.5-1.5,1-3,1.6-4.5c0.2-0.5,0.4-1,0.7-1.4c0.9-1,2.6-0.7,3.8-0.1c1.2,0.6,2.3,1.3,3.2,2.3c0.5,0.6,1.1,1.2,1.8,1.5 c1.3,0.5,2.8-0.3,3.9-1.2c1.6-1.3,2.9-3,4.5-4.4c1.5-1.4,3.4-2.6,5.4-2.9s4.4,0.6,5.3,2.4c0.4,0.7,0.5,1.6,0.6,2.4 c0.1,0.9,0,1.9-0.6,2.6c-0.3,0.4-0.7,0.7-1,1c-0.7,0.8-0.8,1.9-0.4,2.8c0.6,1.3,2.2,1.8,3,3c1,1.4,0.6,3.4-0.5,4.7 c-0.7,0.8-1.6,1.4-2.4,2.1s-1.3,1.8-1,2.9c1.5-0.7,2.5-2.3,4-3.3c0.8-0.5,1.8-0.8,2.8-1c1.8-0.3,3.7-0.4,5.4-1.2 c1.6-0.8,3-1.4,4.7-1.8c1-0.3,2.3-0.5,4-1.1c1.7-0.6,3.6-1.8,5.1-3.8C145.1,381,146.2,378.7,146.7,376.1z M142.5,370.7 C142.5,370.7,142.5,370.7,142.5,370.7L142.5,370.7C142.6,370.7,142.5,370.7,142.5,370.7z M180.1,367.7c0.9-7.4-3.1-15.6-10.2-18 c-6.7-2.2-14,1-21,0.5c-1.4-0.1-3-0.5-3.7-1.8c-0.3-0.6-0.3-1.3-0.3-2c0-2.9,0-5.7,0.1-8.6c0-0.5,0-1-0.2-1.4 c-0.4-0.8-1.4-1.1-2.3-1.1c-4.3-0.3-8.4,2.3-12.7,2.6c-0.6,0-1.1,0-1.6-0.2c-0.6-0.3-1-0.8-1.3-1.4c-1-2.2,0-4.7,1.2-6.8 c1.2-2,2.9-3.9,3.5-6.2c0.4-1.4,0.3-2.8,0-4.2c-0.3-1.7-1.1-3.4-2.5-4.6c-2.4-1.9-5.9-1.5-8.8-0.6c-4.7,1.5-9,4.1-12.6,7.6 c-2.2,2.2-4.6,4.9-7.7,4.7c-3.4-0.3-5.8-4.2-9.2-4.1c-1.3,3.2-1.7,6.6-1.1,10c-3.5-2.2-6-5.5-7.9-9.1c-1.7-3.2-4.2-7.1-4.8-10.7 c-0.2-1-0.2-2.3,0.1-3.6c0.3-1.3,0.8-2.6,1.8-3.8c0.9-1.2,2.4-2.5,4.5-2.8c1-0.2,2.1-0.1,3.2,0.2c1,0.3,2,0.8,2.8,1.5 c1.1,0.9,0.8,0.7,1,0.9c0.1,0.1,0.2,0.2,0.3,0.3c0,0.1,0,0,0.1-0.1l0.1-0.2c0-0.1,0.1-0.2,0.1-0.3l0.1-0.1l0.2-0.3 c0,0,0.2-0.4,0.4-0.6c0.2-0.3,0.3-0.5,0.5-0.8c1.4-2.2,3-4.5,5.1-6.9c2.1-2.3,4.8-4.6,8-6.3c3.2-1.7,6.8-2.9,10.6-3.8 c3.8-0.9,7.7-1.5,12-1.9c2.1-0.2,4.3-0.3,6.6-0.4c2.3,0,4.6-0.1,7.1,0.2c2.5,0.2,5.2,0.7,7.9,1.9c2.6,1.2,5.1,2.8,7.1,5 c2,2.2,3.7,4.8,4.7,7.8c1,3,1.3,6.4,0.9,9.6c-0.3,2.1-0.9,4.1-1.7,6c-0.1,0.3-0.1,0.3-0.2,0.3l-0.1,0.2c0.3,0,0.7,0.1,1,0.1l1.2,0.1 c0.6,0.1,1.2,0.1,1.8,0.3c0.2,0,0.3,0.1,0.5,0.1c0.2,0.1,0.5,0.1,0.7,0.2c0.4,0.2,0.8,0.4,1.2,0.6c1.6,0.9,2.6,2.6,2.8,4.3 c0.1,0.9,0,1.8-0.2,2.7c-0.1,0.3-0.2,0.6-0.3,0.9l-0.1,0.3c0,0,0,0.1,0,0.1c0,0,0,0,0.1,0.1l0.1,0l0.5,0.2l1.2,0.3 c0.8,0.2,1.6,0.4,2.5,0.6c1.7,0.4,3.4,0.8,5.1,1.3c1.7,0.5,3.5,1.1,5.2,1.9c1.7,0.8,3.4,1.8,4.9,3c1.5,1.2,2.8,2.8,3.7,4.4 c1,1.6,1.6,3.3,2.1,5c0.5,1.7,0.7,3.3,0.9,4.9c0.2,1.6,0.2,3.2,0.2,4.7c-0.1,6.2-1.6,11.8-3.8,16.5c-2.2,4.7-5.1,8.4-8,11.2 c-2.9,2.8-5.8,4.8-8.2,6.1c-2.5,1.3-4.5,2.1-5.9,2.5c-1.4,0.4-2.2,0.4-2.3,0.2c-0.1-0.2,7.5-6.9,8.2-7.8c1.1-1.5,2.1-3.1,3-4.8 C179.1,372.3,179.9,370,180.1,367.7z"/></g></svg>