<?xml version="1.0" encoding="UTF-8" standalone="no"?><svg xmlns="http://www.w3.org/2000/svg" xmlns:xlink="http://www.w3.org/1999/xlink" contentScriptType="text/ecmascript" fill="#000000" width="499.8" zoomAndPan="magnify" contentStyleType="text/css" viewBox="0.1 0.0 499.8 309.2" height="309.2" preserveAspectRatio="xMidYMid meet" version="1"><g id="change1_1"><path fill="#f6f4e7" d="M496.44183,104.09326v92.14935c0,16.36804-13.0155,29.7536-29.24097,30.34851 c-6.59454,29.27728-32.80872,51.21289-64.04865,51.21289H258.04773l-7.03583,11.59277 c-6.20142,10.21619-16.90094,16.31403-28.62256,16.31403c-16.44464,0-30.18695-12.02655-33.21198-27.9068H69.28986 c-36.198,0-65.64703-29.44904-65.64703-65.64746V97.05792c0-36.198,29.44904-65.64746,65.64703-65.64746h145.104l7.03802-11.59589 c6.20142-10.21625,16.901-16.31451,28.62262-16.31451c16.44592,0,30.18823,12.02881,33.21234,27.9104h119.88538 c27.98389,0,51.93439,17.60168,61.36353,42.31396h1.55725C482.81818,73.72443,496.44183,87.34766,496.44183,104.09326z"/></g><g id="change2_1"><path fill="#69e344" d="M377.61456,61.77643v35.28222v115.09335v35.28288H285.8808v-0.00066H63.98725 c-16.55943,0-29.97638-15.79178-29.97638-35.28223V97.05865c0-19.48137,13.41695-35.28222,29.97638-35.28222H285.8808h61.75739 H377.61456z"/></g><g id="change3_1"><path d="M466.88379,70.23438c-10.74121-25.41309-36.0498-42.32373-63.73145-42.32373H286.05078 C281.63867,11.5752,266.93359,0,250.05469,0c-12.95508,0-24.77393,6.72852-31.61475,17.99854l-6.01562,9.91211H69.29004 c-38.12793,0-69.14746,31.01953-69.14746,69.14746v115.09863c0,38.12793,31.01953,69.14746,69.14746,69.14746h117.10303 c4.41357,16.33496,19.11816,27.90625,35.99609,27.90625c12.95557,0,24.77393-6.72754,31.61475-17.99707l6.01367-9.90918h143.13477 c15.77148,0,31.20898-5.47168,43.46973-15.4082c11.40039-9.23828,19.63086-21.94824,23.37305-36.00781 c16.99414-1.93848,29.94629-16.23633,29.94629-33.64551v-92.14941C499.94141,85.68945,485.18555,70.66699,466.88379,70.23438z M492.94141,196.24268c0,14.52539-11.3623,26.31934-25.86816,26.85059c-1.58789,0.05859-2.9375,1.17871-3.28613,2.72852 c-6.32812,28.09277-31.8291,48.48242-60.63477,48.48242H258.04785c-1.22266,0-2.35742,0.63867-2.99219,1.68359l-7.03564,11.59277 c-5.56104,9.16113-15.14258,14.62988-25.63086,14.62988c-14.48535,0-27.00732-10.54004-29.77393-25.06152 c-0.31445-1.65039-1.75781-2.84473-3.43799-2.84473H69.29004c-34.26807,0-62.14746-27.87891-62.14746-62.14746V97.05811 c0-34.26807,27.87939-62.14746,62.14746-62.14746h145.104c1.22314,0,2.35742-0.63867,2.99219-1.68408l7.0376-11.59619 C229.98486,12.46924,239.56641,7,250.05469,7c14.4873,0,27.00879,10.5415,29.77344,25.06543 c0.31445,1.65088,1.75781,2.84521,3.43848,2.84521h119.88574c25.60449,0,48.95117,16.09961,58.09277,40.06152 c0.51758,1.35645,1.81934,2.25244,3.27051,2.25244h1.55762c14.81543,0,26.86816,12.05322,26.86816,26.86865V196.24268z M466.07324,100.59326H441.9281c-0.05554-23.34119-19.05902-42.31396-42.41345-42.31396H256.68982V37.99713 c0-7.19202-8.38867-10.03674-12.00879-4.07227L229.89929,58.2793H72.92725c-23.38818,0-42.41553,19.02783-42.41553,42.41602 v107.82373c0,23.38867,19.02734,42.41602,42.41553,42.41602h142.82678v20.27844c0,7.19202,8.38873,10.03674,12.00885,4.07227 l14.77948-24.35071h156.97229c23.38867,0,42.41602-19.02734,42.41602-42.41602v-8.77637h24.14258c1.93262,0,3.5-1.56738,3.5-3.5 v-92.14941C469.57324,102.16016,468.00586,100.59326,466.07324,100.59326z M72.92725,243.93506 c-19.52832,0-35.41553-15.8877-35.41553-35.41602V100.69531c0-19.52832,15.88721-35.41602,35.41553-35.41602H225.6507 l-55.84625,92.01257c-2.93799,4.8407,0.18634,11.36005,5.44415,11.36005h33.9408c3.62555,0,6.56464,3.26288,6.56464,7.28778 v67.99536H72.92725z M297.19531,140.55865l-33.9408,0.00006c-3.62555,0-6.56464-3.26288-6.56464-7.28778l-0.00006-67.99164 h117.42444v178.65576h-127.3233l55.84851-92.0163C305.57745,147.07806,302.45312,140.55865,297.19531,140.55865z M434.93066,208.51904c0,19.52832-15.8877,35.41602-35.41602,35.41602h-18.40039V65.2793h18.40039 c19.52832,0,35.41602,15.8877,35.41602,35.41602V208.51904z"/></g></svg>