<?xml version="1.0" encoding="UTF-8" standalone="no"?><svg xmlns="http://www.w3.org/2000/svg" xmlns:xlink="http://www.w3.org/1999/xlink" contentScriptType="text/ecmascript" fill="#000000" width="65.9" zoomAndPan="magnify" contentStyleType="text/css" viewBox="0.0 0.0 65.9 65.9" height="65.9" preserveAspectRatio="xMidYMid meet" version="1"><defs><clipPath id="a"><path d="M 0 0 L 65.898438 0 L 65.898438 65.898438 L 0 65.898438 Z M 0 0"/></clipPath></defs><g><g id="change1_1" clip-path="url(#a)"><path fill="#16295d" d="M 62.898438 32.949219 C 62.898438 49.492188 49.488281 62.898438 32.949219 62.898438 C 16.410156 62.898438 3 49.492188 3 32.949219 C 3 16.410156 16.410156 3.003906 32.949219 3.003906 C 49.480469 3.019531 62.878906 16.417969 62.898438 32.949219 Z M 65.898438 32.949219 C 65.898438 14.753906 51.144531 0.00390625 32.949219 0.00390625 C 14.75 0.00390625 0 14.753906 0 32.953125 C 0 51.148438 14.753906 65.898438 32.949219 65.898438 C 51.136719 65.878906 65.878906 51.140625 65.898438 32.949219 Z M 55.40625 32.753906 L 51.757812 36.402344 L 36.015625 52.222656 L 28.726562 52.222656 L 45.558594 35.300781 L 15.644531 35.300781 L 15.644531 29.300781 L 44.660156 29.300781 L 27.851562 12.460938 L 35.113281 12.460938 L 55.40625 32.753906"/></g></g></svg>