<?xml version="1.0" encoding="UTF-8" standalone="no"?><svg xmlns="http://www.w3.org/2000/svg" xmlns:xlink="http://www.w3.org/1999/xlink" contentScriptType="text/ecmascript" fill="#004aad" width="491.2" zoomAndPan="magnify" contentStyleType="text/css" viewBox="-0.1 0.0 491.2 553.5" height="553.5" preserveAspectRatio="xMidYMid meet" version="1"><g id="change1_1"><path d="M245.8,0c-6.9,0-13,4.2-15.5,10.6L32.7,514.7c-2.3,5.9-6.7,10.9-12.3,13.8c-6.1,3.1-13,5.5-17.1,6.7c-2,0.6-3.4,2.5-3.4,4.6 l0,7.7c0,3.3,2.7,6,6,6h11.6h25.4h26.7c3.3,0,6-2.7,6-6l0-7.9c0-2-1.2-3.7-3.1-4.5c-6.3-2.5-10.8-5.8-13.9-8.5 c-2.3-2.1-3.1-5.5-2-8.4L131,328.6c1.8-4.6,6.2-7.6,11.1-7.6h169.9c5.4,0,10.1,3.6,11.5,8.8l51.7,191c0.7,2.6-0.3,5.3-2.6,6.7 c-5.7,3.6-12.8,6.1-17.2,7.5c-2.6,0.8-4.4,3.2-4.4,5.9v6.5c0,3.3,2.7,6,6,6h128.1c3.3,0,6-2.7,6-6l0-6.5c0-2.7-1.8-5.1-4.4-5.8 c-6.8-2-14.1-4.9-19.7-7.3c-4.5-1.9-7.9-5.8-9.1-10.6l-135-499C320.2,7.4,310.5,0,299.4,0L245.8,0z M146.8,288.4l91.9-234.5 c1.9-4.9,9-4.5,10.4,0.6l63.5,234.7c1.2,4.5-2.2,9-6.9,9H153.4C148.4,298.1,145,293,146.8,288.4z"/></g></svg>